<?xml version="1.0" encoding="UTF-8"?>
<svg version="1.1" xmlns="http://www.w3.org/2000/svg" width="500" height="500">
<path d="M0 0 C4.3938504 2.9292336 7.26804961 5.54835683 8.625 10.75 C9.45902434 17.18866793 8.8611496 21.77924275 5.0625 27.12109375 C3.15607973 29.28135803 1.26505875 30.60835297 -1.375 31.75 C-2.035 31.75 -2.695 31.75 -3.375 31.75 C-3.375 57.49 -3.375 83.23 -3.375 109.75 C9.825 109.75 23.025 109.75 36.625 109.75 C36.58375 104.2225 36.5425 98.695 36.5 93 C36.50362549 90.39206543 36.50362549 90.39206543 36.50732422 87.73144531 C36.4837915 86.34696334 36.4580603 84.96251624 36.4296875 83.578125 C36.4387915 82.86446777 36.44789551 82.15081055 36.45727539 81.41552734 C36.45430366 79.05646645 36.45430366 79.05646645 35.625 75.75 C32.81264439 73.3436327 32.81264439 73.3436327 29.625 71.75 C26.01561589 67.9506483 25.31568591 64.90381391 25.125 59.8125 C25.33966068 54.22439769 26.09045007 51.10021529 29.625 46.75 C34.64585223 42.75381149 38.67655692 42.16360912 45.04296875 42.43359375 C50.07155577 43.04980487 53.13489893 44.9919549 56.4375 48.6875 C59.83210743 53.4399504 60.43132968 57.92767138 59.625 63.75 C58.52778307 66.56730809 57.17105125 69.15484254 55.625 71.75 C54.965 71.75 54.305 71.75 53.625 71.75 C53.625 72.41 53.625 73.07 53.625 73.75 C51.645 74.41 49.665 75.07 47.625 75.75 C47.625 86.97 47.625 98.19 47.625 109.75 C52.575 109.75 57.525 109.75 62.625 109.75 C73.20890148 111.1770429 79.04908705 115.12816409 85.8125 123.4375 C90.72468534 132.41494218 89.625 141.49095704 89.625 151.75 C100.845 151.75 112.065 151.75 123.625 151.75 C124.285 149.77 124.945 147.79 125.625 145.75 C126.285 145.75 126.945 145.75 127.625 145.75 C127.625 145.09 127.625 144.43 127.625 143.75 C132.50510836 140.35514201 136.14609701 139.03669987 142.12890625 139.30078125 C147.6810276 140.29998932 151.27480457 143.36604969 155.125 147.3125 C157.36737547 152.45127713 157.38317311 157.23049974 156.625 162.75 C154.875 166.25 154.875 166.25 152.625 168.75 C151.965 169.513125 151.305 170.27625 150.625 171.0625 C146.92424966 174.1850081 142.60997559 174.02649478 137.94140625 173.97265625 C133.65301575 173.56045008 130.20747173 172.00506379 126.8125 169.3125 C125.625 167.75 125.625 167.75 123.625 163.75 C106.795 163.255 106.795 163.255 89.625 162.75 C89.625 175.95 89.625 189.15 89.625 202.75 C115.035 202.42 140.445 202.09 166.625 201.75 C167.285 200.43 167.945 199.11 168.625 197.75 C169.285 197.75 169.945 197.75 170.625 197.75 C170.934375 196.8528125 170.934375 196.8528125 171.25 195.9375 C173.26343195 192.73431281 175.06330904 192.02203249 178.625 190.75 C184.58705122 190.03377956 189.57244419 190.22496106 194.625 193.75 C198.8635253 197.96548984 200.76453707 201.56988605 200.875 207.5625 C200.80947506 213.18945422 199.36389435 216.66332678 195.75 221 C191.24513299 224.70989048 186.91361699 225.23864286 181.20703125 225.14453125 C177.05853012 224.5106453 173.70114555 222.58555316 170.625 219.75 C170.625 219.09 170.625 218.43 170.625 217.75 C169.965 217.75 169.305 217.75 168.625 217.75 C167.965 216.43 167.305 215.11 166.625 213.75 C141.215 213.42 115.805 213.09 89.625 212.75 C89.625 225.95 89.625 239.15 89.625 252.75 C95.1525 252.70875 100.68 252.6675 106.375 252.625 C108.11362305 252.62741699 109.85224609 252.62983398 111.64355469 252.63232422 C113.02803666 252.6087915 114.41248376 252.5830603 115.796875 252.5546875 C116.51053223 252.5637915 117.22418945 252.57289551 117.95947266 252.58227539 C120.31853355 252.57930366 120.31853355 252.57930366 123.625 251.75 C126.0313673 248.93764439 126.0313673 248.93764439 127.625 245.75 C132.31122742 241.29808395 136.56333748 241.3084792 142.72265625 241.31640625 C148.96901221 242.24957652 151.98814403 246.00188248 155.625 250.75 C158.02518697 255.55037395 157.12122483 262.17375644 155.5625 267.125 C152.42545306 271.37519262 148.62805271 274.08231576 143.625 275.75 C137.11985054 276.30128385 133.2040242 275.07367399 127.625 271.75 C127.625 271.09 127.625 270.43 127.625 269.75 C126.965 269.75 126.305 269.75 125.625 269.75 C124.965 267.77 124.305 265.79 123.625 263.75 C112.405 263.75 101.185 263.75 89.625 263.75 C89.625 268.7 89.625 273.65 89.625 278.75 C88.62493317 287.3505747 86.15584578 293.70429258 79.58203125 299.57421875 C69.59473631 306.8746662 60.05676436 305.75 47.625 305.75 C47.625 316.97 47.625 328.19 47.625 339.75 C49.605 340.41 51.585 341.07 53.625 341.75 C53.625 342.41 53.625 343.07 53.625 343.75 C54.285 343.75 54.945 343.75 55.625 343.75 C58.76747981 349.02487682 60.8354105 353.55413637 59.625 359.75 C57.69830899 364.98496044 55.41346139 369.37657872 50.26953125 371.91015625 C45.02891237 373.57445914 39.42280594 373.81692109 34.23828125 371.83984375 C29.79127013 369.28342885 27.09214756 366.79331973 25.625 361.75 C24.77295007 355.52212993 24.59377586 350.3708502 28.375 345.125 C30.73839414 342.29608883 32.14854812 341.48822594 35.625 339.75 C35.955 328.53 36.285 317.31 36.625 305.75 C23.425 305.75 10.225 305.75 -3.375 305.75 C-3.045 331.16 -2.715 356.57 -2.375 382.75 C-1.055 383.41 0.265 384.07 1.625 384.75 C1.625 385.41 1.625 386.07 1.625 386.75 C2.5221875 387.059375 2.5221875 387.059375 3.4375 387.375 C6.64068719 389.38843195 7.35296751 391.18830904 8.625 394.75 C9.39563878 401.0713208 8.91529935 406.26616775 5.625 411.75 C-0.51616455 416.61175527 -5.75897329 417.41536271 -13.375 416.75 C-18.42853013 414.87832217 -21.88190968 412.28825354 -24.625 407.625 C-26.08973993 402.01016361 -26.07861488 396.72012165 -24.125 391.25 C-22.34765909 388.71094156 -21.27073124 387.74852802 -18.375 386.75 C-18.375 386.09 -18.375 385.43 -18.375 384.75 C-16.725 384.42 -15.075 384.09 -13.375 383.75 C-13.375 358.01 -13.375 332.27 -13.375 305.75 C-26.575 305.75 -39.775 305.75 -53.375 305.75 C-53.045 316.97 -52.715 328.19 -52.375 339.75 C-51.055 340.41 -49.735 341.07 -48.375 341.75 C-48.375 342.41 -48.375 343.07 -48.375 343.75 C-47.385 344.08 -46.395 344.41 -45.375 344.75 C-42.39877018 350.04107524 -41.5813811 354.72070089 -42.375 360.75 C-44.33934039 366.42476113 -48.00300662 370.06400331 -53.375 372.75 C-58.82994588 373.24813129 -63.74523481 373.46117027 -68.8125 371.25 C-73.55480905 366.62335703 -76.63744609 362.48527308 -76.9375 355.6875 C-76.70180345 350.76828487 -75.16083828 347.75464252 -72.375 343.75 C-71.715 343.75 -71.055 343.75 -70.375 343.75 C-70.375 343.09 -70.375 342.43 -70.375 341.75 C-68.395 341.09 -66.415 340.43 -64.375 339.75 C-64.375 328.53 -64.375 317.31 -64.375 305.75 C-69.325 305.75 -74.275 305.75 -79.375 305.75 C-88.54654036 304.07443013 -94.09134354 302.15264692 -100.625 295.4375 C-107.05015162 285.57030288 -106.375 275.51669017 -106.375 263.75 C-117.595 263.75 -128.815 263.75 -140.375 263.75 C-141.035 265.73 -141.695 267.71 -142.375 269.75 C-143.035 269.75 -143.695 269.75 -144.375 269.75 C-144.375 270.41 -144.375 271.07 -144.375 271.75 C-149.68968683 275.44075474 -153.93565095 276.18656604 -160.375 275.75 C-166.24128117 273.92942998 -168.92460461 271.62114644 -172.375 266.75 C-174.08342542 261.62472373 -174.30686928 255.82067769 -172.7265625 250.61328125 C-170.85784432 246.93174672 -168.26521648 244.2535345 -164.5625 242.41015625 C-158.68073255 240.63512286 -151.86475978 240.56939952 -146.3125 243.375 C-143.375 245.75 -143.375 245.75 -140.375 251.75 C-123.545 252.245 -123.545 252.245 -106.375 252.75 C-106.375 239.55 -106.375 226.35 -106.375 212.75 C-119.91441369 212.69532456 -119.91441369 212.69532456 -133.453125 212.71484375 C-138.97720473 212.73926615 -144.50035381 212.75508735 -150.02441406 212.71923828 C-154.47941899 212.69087212 -158.93280028 212.70145654 -163.38772202 212.73880005 C-165.08532248 212.74623402 -166.78304406 212.73974442 -168.4805336 212.71896362 C-177.59036588 212.25633227 -177.59036588 212.25633227 -185.68792725 215.52734375 C-187.18378249 217.54116355 -188.24499177 219.52082557 -189.375 221.75 C-194.33741504 225.35902912 -199.44743682 225.44622276 -205.375 224.75 C-210.65597404 222.95646165 -213.17395251 220.14000798 -216.375 215.75 C-218.18993882 210.30518355 -218.11520057 204.74854153 -216.125 199.375 C-213.1957664 194.9811496 -210.57664317 192.10695039 -205.375 190.75 C-198.50362766 189.97872351 -193.92398082 190.53277458 -188.375 194.75 C-184.375 199.87820513 -184.375 199.87820513 -184.375 202.75 C-158.635 202.75 -132.895 202.75 -106.375 202.75 C-106.375 189.55 -106.375 176.35 -106.375 162.75 C-116.81618796 162.78957117 -116.81618796 162.78957117 -127.25732422 162.84008789 C-128.5517041 162.84258545 -129.84608398 162.84508301 -131.1796875 162.84765625 C-131.86039307 162.85277222 -132.54109863 162.85788818 -133.24243164 162.86315918 C-138.1468564 162.8640718 -138.1468564 162.8640718 -140.375 161.75 C-141.365 164.72 -141.365 164.72 -142.375 167.75 C-143.035 167.75 -143.695 167.75 -144.375 167.75 C-144.705 168.74 -145.035 169.73 -145.375 170.75 C-150.64254594 173.71299459 -155.37040548 174.6579112 -161.375 173.75 C-166.02782569 172.36894927 -168.76191505 170.48570194 -171.875 166.75 C-174.30646853 161.72424138 -174.12200626 156.17522727 -173.375 150.75 C-171.21562362 146.27129344 -168.44547061 143.56801812 -164.375 140.75 C-159.48702276 139.12067425 -154.01920693 138.6801707 -149.1640625 140.64453125 C-147.25 141.75 -147.25 141.75 -144.375 143.75 C-144.375 144.41 -144.375 145.07 -144.375 145.75 C-143.715 145.75 -143.055 145.75 -142.375 145.75 C-141.715 147.73 -141.055 149.71 -140.375 151.75 C-129.155 151.75 -117.935 151.75 -106.375 151.75 C-106.375 146.47 -106.375 141.19 -106.375 135.75 C-104.52274007 126.29372564 -101.99885434 120.14398677 -94.125 114.4375 C-84.43762321 108.49189232 -76.19903332 109.75 -64.375 109.75 C-64.375 98.53 -64.375 87.31 -64.375 75.75 C-67.345 74.76 -67.345 74.76 -70.375 73.75 C-70.375 73.09 -70.375 72.43 -70.375 71.75 C-71.035 71.75 -71.695 71.75 -72.375 71.75 C-76.29686324 66.1123216 -77.46572406 61.60283194 -76.375 54.75 C-74.39921182 49.1924354 -70.61721924 45.37110962 -65.375 42.75 C-60.00564774 42.25298864 -54.32176699 41.80355968 -49.375 44.25 C-45.05381311 47.85098907 -42.87719053 51.42869444 -42.03125 57.0234375 C-41.81623832 62.27330611 -42.80267469 66.17697723 -45.375 70.75 C-46.365 71.08 -47.355 71.41 -48.375 71.75 C-48.375 72.41 -48.375 73.07 -48.375 73.75 C-50.355 74.74 -50.355 74.74 -52.375 75.75 C-52.705 86.97 -53.035 98.19 -53.375 109.75 C-40.175 109.75 -26.975 109.75 -13.375 109.75 C-13.375 84.01 -13.375 58.27 -13.375 31.75 C-15.025 31.09 -16.675 30.43 -18.375 29.75 C-22.15642088 26.40827922 -25.01608599 23.53274887 -25.67578125 18.41796875 C-25.70263626 12.73365813 -25.32714093 8.67023488 -22.375 3.75 C-15.60574557 -1.60899309 -8.16326398 -3.0234311 0 0 Z M-13.1875 10.9375 C-15.62280215 13.49355462 -15.62280215 13.49355462 -15.4375 16.3125 C-14.1476649 19.27153346 -12.99995432 20.85419966 -10.375 22.75 C-7.4956006 22.67977075 -5.9612058 22.16871843 -3.625 20.5 C-1.91995879 18.11294231 -1.375 16.70659783 -1.375 13.75 C-3.45833333 10.83333333 -3.45833333 10.83333333 -6.375 8.75 C-10.44260656 8.34070626 -10.44260656 8.34070626 -13.1875 10.9375 Z M-64.375 54.75 C-65.77435013 57.54870027 -65.62765405 59.65498792 -65.375 62.75 C-64.375 64.75 -64.375 64.75 -62.375 65.75 C-58.72240261 66.29400387 -57.0316114 66.18774093 -53.9375 64.125 C-52.10407585 61.79721699 -52.10407585 61.79721699 -52.3125 58.6875 C-53.13667287 55.58545199 -53.13667287 55.58545199 -55.8125 53.875 C-59.50913863 52.25208548 -60.9676295 52.77152681 -64.375 54.75 Z M38.8125 53.75 C36.40878967 55.63675953 36.40878967 55.63675953 35.5625 58.6875 C35.35407585 61.79721699 35.35407585 61.79721699 37.1875 64.125 C40.2972342 66.19815613 41.95696781 66.37434591 45.625 65.75 C47.74170357 64.28958234 47.74170357 64.28958234 48.625 61.75 C48.39631906 58.06184707 48.39631906 58.06184707 47.625 54.75 C43.30712861 52.84016935 43.30712861 52.84016935 38.8125 53.75 Z M-93.84165955 128.66017151 C-96.62043833 134.35625678 -95.93980054 141.00186843 -95.90844727 147.18725586 C-95.91551199 148.65313076 -95.92425934 150.11899836 -95.93455505 151.58485413 C-95.9569974 155.55191263 -95.9541215 159.5185712 -95.94523358 163.4856689 C-95.94011199 166.80320663 -95.94742576 170.12066999 -95.95470566 173.43820006 C-95.97168838 181.26737895 -95.96815541 189.09636287 -95.95141602 196.92553711 C-95.9344957 204.99014872 -95.95033139 213.054219 -95.9826389 221.11877149 C-96.00936838 228.05490198 -96.01660178 234.99086431 -96.00812382 241.92704111 C-96.00320441 246.0643923 -96.00535643 250.20141788 -96.02591133 254.33872795 C-96.04432158 258.23041633 -96.03824562 262.12132855 -96.01371193 266.01297569 C-96.00872085 267.43673062 -96.01214952 268.86054523 -96.02486038 270.28425217 C-96.20224796 280.36913533 -96.20224796 280.36913533 -91.9411602 289.21725559 C-85.12840312 295.88465482 -77.03961511 295.32467804 -67.99194336 295.26757812 C-66.5440043 295.2730057 -65.09607076 295.28013192 -63.64814758 295.28881836 C-59.73491392 295.30697777 -55.82210439 295.30001549 -51.90886378 295.28730202 C-47.80418598 295.27713779 -43.69954321 295.28657699 -39.59486389 295.29284668 C-32.70437128 295.30011234 -25.81405048 295.29056303 -18.92358398 295.27148438 C-10.96748692 295.24970898 -3.01179981 295.25677604 4.94428736 295.27879 C11.78784912 295.29696461 18.63128775 295.29949254 25.47486585 295.28903532 C29.55678394 295.28281279 33.63850955 295.2819306 37.72041512 295.29518127 C41.55786442 295.30676964 45.394787 295.29866027 49.23217964 295.27560425 C50.63699979 295.27033336 52.04186457 295.27180316 53.44666672 295.28065491 C62.06022191 295.32990961 67.83863353 295.13929122 74.3671875 289.15234375 C77.93695299 284.53626768 78.74937494 281.57612276 78.77217102 275.82441711 C78.77932632 274.5865596 78.78648163 273.34870209 78.79385376 272.07333374 C78.796694 270.6990359 78.79940574 269.32473778 78.80200195 267.95043945 C78.80826768 266.50486589 78.81491457 265.05929394 78.82191467 263.61372375 C78.84294739 258.86358764 78.85331742 254.11345124 78.86328125 249.36328125 C78.86732933 247.72683381 78.87144626 246.09038654 78.87563133 244.45393944 C78.89468254 236.76419043 78.90891281 229.07445102 78.9172433 221.38468295 C78.92701102 212.51511085 78.95331853 203.64578862 78.99374419 194.77630454 C79.02393336 187.91672568 79.03871489 181.05721831 79.04202431 174.19757432 C79.04437193 170.10265051 79.05329435 166.00799365 79.07848549 161.91314125 C79.10181997 158.05776272 79.10597811 154.20282588 79.09572411 150.34739494 C79.09522991 148.936525 79.10151612 147.52563291 79.11528015 146.11483002 C79.18799762 138.21593215 78.91802713 132.49704027 74.625 125.75 C73.965 125.75 73.305 125.75 72.625 125.75 C72.625 125.09 72.625 124.43 72.625 123.75 C68.30971878 121.30354644 65.21191039 120.37251761 60.26272583 120.35559082 C59.00391602 120.34424103 57.7451062 120.33289124 56.44815063 120.32119751 C55.06585629 120.32384046 53.68356254 120.32681162 52.30126953 120.33007812 C50.83554438 120.32273318 49.36982501 120.31414571 47.90411377 120.30441284 C43.93293277 120.28223208 39.96195948 120.27926444 35.99072504 120.28116035 C32.67076086 120.28128022 29.35084042 120.27270942 26.03088844 120.26438284 C18.19552993 120.24516092 10.36027796 120.24226043 2.52490234 120.24902344 C-5.54705601 120.2556627 -13.61855724 120.23280198 -21.69042289 120.19570971 C-28.63076557 120.16497918 -35.57096145 120.15365632 -42.51137078 120.15754652 C-46.65210823 120.15961067 -50.79248992 120.15418696 -54.93316269 120.12965393 C-58.82891506 120.10733369 -62.72392606 120.10930761 -66.61968231 120.12958145 C-68.04505875 120.13298232 -69.4704856 120.12794218 -70.89579391 120.11359787 C-80.99910798 120.01897648 -87.18642694 120.80831034 -93.84165955 128.66017151 Z M-162.4375 152.875 C-163.65393617 156.60540426 -163.0783934 158.26578622 -161.375 161.75 C-158.62658089 164.02671738 -158.62658089 164.02671738 -155.875 163.5625 C-153.11185401 162.66447755 -151.9660219 162.17840184 -150.375 159.75 C-149.98523565 156.63188517 -149.87077755 154.63980433 -151.4375 151.875 C-155.42366224 149.56045418 -159.20703479 149.5466419 -162.4375 152.875 Z M133.625 152.75 C133.26202064 154.72747122 133.26202064 154.72747122 133.4375 156.875 C133.499375 158.15375 133.56125 159.4325 133.625 160.75 C134.285 160.75 134.945 160.75 135.625 160.75 C135.625 161.41 135.625 162.07 135.625 162.75 C138.83459534 163.55239884 140.87687355 164.04531307 144 162.8125 C146.63009965 159.47429659 146.08840729 156.92066563 145.625 152.75 C141.19270648 149.79513765 138.05729352 149.79513765 133.625 152.75 Z M-205.25 202.875 C-207.63504609 205.50597916 -207.63504609 205.50597916 -207.375 208.375 C-205.99783395 211.64576936 -204.66158824 213.10670588 -201.5 214.6875 C-199.15499803 214.9487203 -199.15499803 214.9487203 -196.6875 213.125 C-194.27525994 210.93408891 -194.27525994 210.93408891 -193.3125 208.25 C-193.14253014 205.62545797 -193.14253014 205.62545797 -195 203.5 C-199.09969002 200.47917578 -200.99347684 199.72887419 -205.25 202.875 Z M178.625 202.75 C176.34828262 205.49841911 176.34828262 205.49841911 176.8125 208.25 C177.69485847 210.96494913 178.34826063 212.0635264 180.625 213.75 C183.04069259 214.76303238 184.21161645 214.85942506 186.75 214.1875 C189.54009818 212.04842473 190.02199426 210.16703251 190.625 206.75 C189.72262034 203.85700447 189.72262034 203.85700447 187.625 201.75 C183.98315081 200.34928877 181.83220392 200.53813523 178.625 202.75 Z M-160.5625 252.9375 C-162.87048235 255.24548235 -163.29748409 256.49433177 -163.375 259.75 C-162.47262034 262.64299553 -162.47262034 262.64299553 -160.375 264.75 C-156.99466528 265.32537612 -155.09397417 265.09056671 -152 263.625 C-150.11913523 261.78237248 -150.11913523 261.78237248 -149.875 258.8125 C-150.48024881 255.10535102 -151.35388 253.93192 -154.375 251.75 C-158.20393746 251.43193876 -158.20393746 251.43193876 -160.5625 252.9375 Z M135.25 252.6875 C132.61990035 256.02570341 133.16159271 258.57933437 133.625 262.75 C137.09423881 265.06282587 138.54705575 265.17478586 142.625 264.75 C144.70977638 263.31222319 145.43739178 262.15201761 146.5 259.875 C146.69031889 256.6395789 145.67987003 255.20258681 143.625 252.75 C140.29965706 251.61796836 138.52908545 251.39312417 135.25 252.6875 Z M-63.375 349.75 C-65.68832486 353.21998729 -65.71457563 354.67509248 -65.375 358.75 C-64.385 360.235 -64.385 360.235 -63.375 361.75 C-57.92751889 362.48425347 -57.92751889 362.48425347 -53.3125 360.125 C-52.07968693 357.00187355 -52.57260116 354.95959534 -53.375 351.75 C-54.035 351.75 -54.695 351.75 -55.375 351.75 C-55.375 351.09 -55.375 350.43 -55.375 349.75 C-56.65375 349.688125 -57.9325 349.62625 -59.25 349.5625 C-59.96929687 349.52769531 -60.68859375 349.49289062 -61.4296875 349.45703125 C-62.39261719 349.60205078 -62.39261719 349.60205078 -63.375 349.75 Z M36.5625 351.375 C35.30643392 354.55703406 35.70429747 356.49212952 36.625 359.75 C38.56231528 362.11410488 38.56231528 362.11410488 42.0625 362.0625 C45.48153666 362.01665828 45.48153666 362.01665828 47.5625 360.625 C49.11224515 357.89015561 48.94662076 355.8375593 48.625 352.75 C47.965 351.76 47.305 350.77 46.625 349.75 C41.17751889 349.01574653 41.17751889 349.01574653 36.5625 351.375 Z M-12.5625 394.5 C-14.84509965 397.30932556 -14.84509965 397.30932556 -15.375 400.75 C-14.13152756 403.56417448 -13.29442389 405.29028806 -10.5 406.6875 C-7.53637979 406.7746653 -5.92142628 406.29125801 -3.375 404.75 C-1.83049217 401.66098434 -1.03655361 399.85764275 -2.0625 396.5 C-3.43220346 394.47149428 -3.43220346 394.47149428 -6.375 392.75 C-10.32131527 392.33353663 -10.32131527 392.33353663 -12.5625 394.5 Z " fill="#444041" transform="translate(258.375,42.25)"/>
<path d="M0 0 C2.9880103 1.46710817 4.68306042 2.33799651 6.14453125 5.390625 C8.19103806 14.15111029 8 20.48240102 8 30 C19.22 30 30.44 30 42 30 C42.66 28.02 43.32 26.04 44 24 C44.66 24 45.32 24 46 24 C46 23.34 46 22.68 46 22 C50.88010836 18.60514201 54.52109701 17.28669987 60.50390625 17.55078125 C66.0560276 18.54998932 69.64980457 21.61604969 73.5 25.5625 C75.74237547 30.70127713 75.75817311 35.48049974 75 41 C73.25 44.5 73.25 44.5 71 47 C70.34 47.763125 69.68 48.52625 69 49.3125 C65.29924966 52.4350081 60.98497559 52.27649478 56.31640625 52.22265625 C52.02801575 51.81045008 48.58247173 50.25506379 45.1875 47.5625 C44 46 44 46 42 42 C30.78 41.67 19.56 41.34 8 41 C8 54.2 8 67.4 8 81 C33.41 80.67 58.82 80.34 85 80 C85.66 78.68 86.32 77.36 87 76 C87.66 76 88.32 76 89 76 C89.20625 75.401875 89.4125 74.80375 89.625 74.1875 C91.63843195 70.98431281 93.43830904 70.27203249 97 69 C102.96205122 68.28377956 107.94744419 68.47496106 113 72 C117.2385253 76.21548984 119.13953707 79.81988605 119.25 85.8125 C119.18447506 91.43945422 117.73889435 94.91332678 114.125 99.25 C109.62013299 102.95989048 105.28861699 103.48864286 99.58203125 103.39453125 C95.43353012 102.7606453 92.07614555 100.83555316 89 98 C89 97.34 89 96.68 89 96 C88.34 96 87.68 96 87 96 C86.34 94.68 85.68 93.36 85 92 C59.59 91.67 34.18 91.34 8 91 C8 104.2 8 117.4 8 131 C13.5275 130.95875 19.055 130.9175 24.75 130.875 C26.48862305 130.87741699 28.22724609 130.87983398 30.01855469 130.88232422 C31.40303666 130.8587915 32.78748376 130.8330603 34.171875 130.8046875 C34.88553223 130.8137915 35.59918945 130.82289551 36.33447266 130.83227539 C38.69353355 130.82930366 38.69353355 130.82930366 42 130 C44.4063673 127.18764439 44.4063673 127.18764439 46 124 C50.68622742 119.54808395 54.93833748 119.5584792 61.09765625 119.56640625 C67.34401221 120.49957652 70.36314403 124.25188248 74 129 C76.40018697 133.80037395 75.49622483 140.42375644 73.9375 145.375 C70.80045306 149.62519262 67.00305271 152.33231576 62 154 C55.49485054 154.55128385 51.5790242 153.32367399 46 150 C46 149.34 46 148.68 46 148 C45.34 148 44.68 148 44 148 C43.34 146.02 42.68 144.04 42 142 C30.78 142 19.56 142 8 142 C8 146.95 8 151.9 8 157 C6.99993317 165.6005747 4.53084578 171.95429258 -2.04296875 177.82421875 C-12.03026369 185.1246662 -21.56823564 184 -34 184 C-34 195.22 -34 206.44 -34 218 C-31.03 218.99 -31.03 218.99 -28 220 C-28 220.66 -28 221.32 -28 222 C-27.34 222 -26.68 222 -26 222 C-22.85752019 227.27487682 -20.7895895 231.80413637 -22 238 C-23.92669101 243.23496044 -26.21153861 247.62657872 -31.35546875 250.16015625 C-36.59608763 251.82445914 -42.20219406 252.06692109 -47.38671875 250.08984375 C-51.83372987 247.53342885 -54.53285244 245.04331973 -56 240 C-56.85204993 233.77212993 -57.03122414 228.6208502 -53.25 223.375 C-50.88660586 220.54608883 -49.47645188 219.73822594 -46 218 C-45.67 206.78 -45.34 195.56 -45 184 C-58.2 184 -71.4 184 -85 184 C-84.67 209.41 -84.34 234.82 -84 261 C-82.68 261.66 -81.36 262.32 -80 263 C-80 263.66 -80 264.32 -80 265 C-79.401875 265.20625 -78.80375 265.4125 -78.1875 265.625 C-74.98431281 267.63843195 -74.27203249 269.43830904 -73 273 C-72.22936122 279.3213208 -72.70970065 284.51616775 -76 290 C-82.14116455 294.86175527 -87.38397329 295.66536271 -95 295 C-100.05353013 293.12832217 -103.50690968 290.53825354 -106.25 285.875 C-107.71473993 280.26016361 -107.70361488 274.97012165 -105.75 269.5 C-103.97265909 266.96094156 -102.89573124 265.99852802 -100 265 C-100 264.34 -100 263.68 -100 263 C-98.35 262.67 -96.7 262.34 -95 262 C-95 236.26 -95 210.52 -95 184 C-108.2 184 -121.4 184 -135 184 C-134.67 195.22 -134.34 206.44 -134 218 C-132.68 218.66 -131.36 219.32 -130 220 C-130 220.66 -130 221.32 -130 222 C-129.01 222.33 -128.02 222.66 -127 223 C-124.02377018 228.29107524 -123.2063811 232.97070089 -124 239 C-125.96434039 244.67476113 -129.62800662 248.31400331 -135 251 C-140.45494588 251.49813129 -145.37023481 251.71117027 -150.4375 249.5 C-155.17980905 244.87335703 -158.26244609 240.73527308 -158.5625 233.9375 C-158.32680345 229.01828487 -156.78583828 226.00464252 -154 222 C-153.34 222 -152.68 222 -152 222 C-152 221.34 -152 220.68 -152 220 C-149.03 219.01 -149.03 219.01 -146 218 C-146 206.78 -146 195.56 -146 184 C-150.95 184 -155.9 184 -161 184 C-171.81179221 182.28223862 -171.81179221 182.28223862 -174.62890625 179.2421875 C-175.75 177.3125 -175.75 177.3125 -177 174 C-176.01 173.67 -175.02 173.34 -174 173 C-174 173.66 -174 174.32 -174 175 C-172.81817642 174.67278961 -171.63635284 174.34557922 -170.41871643 174.00845337 C-163.75390902 172.53981374 -157.08836562 172.78131987 -150.30053711 172.86474609 C-148.831254 172.87518917 -147.36196417 172.88472121 -145.89266968 172.89341736 C-141.92833781 172.91943551 -137.96422082 172.95810486 -134.00001979 172.99914122 C-129.84809734 173.03993762 -125.69609252 173.06896684 -121.54408264 173.09927368 C-113.69257834 173.1583573 -105.84120401 173.22793913 -97.98982197 173.30134451 C-89.04667859 173.38444212 -80.10345321 173.45575758 -71.16020191 173.52611041 C-52.77334662 173.67101472 -34.38664536 173.83062728 -16 174 C-16 173.34 -16 172.68 -16 172 C-14.9275 171.443125 -13.855 170.88625 -12.75 170.3125 C-8.31290226 167.77958186 -5.63490808 164.90472423 -4 160 C-3.34 160 -2.68 160 -2 160 C-2.01049598 158.83544501 -2.01049598 158.83544501 -2.02120399 157.64736366 C-2.19057808 138.7782485 -2.34887956 119.9090704 -2.49477577 101.03975868 C-2.56559788 91.9147969 -2.64020177 82.78989499 -2.72363281 73.66503906 C-2.79632066 65.71412667 -2.86199016 57.76319302 -2.91914403 49.81215322 C-2.94966903 45.60005091 -2.98376775 41.38804442 -3.02626419 37.17604446 C-3.06611789 33.21500451 -3.09661718 29.25400479 -3.11981392 25.29283333 C-3.13001832 23.83589255 -3.1436968 22.3789715 -3.16103554 20.92209816 C-3.18412527 18.93916925 -3.19372265 16.95609669 -3.20254517 14.97305298 C-3.2117631 13.86137064 -3.22098103 12.7496883 -3.23047829 11.60431862 C-3 9 -3 9 -1 7 C-1.32041397 4.39719432 -1.32041397 4.39719432 -2 2 C-1.34 2 -0.68 2 0 2 C0 1.34 0 0.68 0 0 Z M52 31 C51.63702064 32.97747122 51.63702064 32.97747122 51.8125 35.125 C51.874375 36.40375 51.93625 37.6825 52 39 C52.66 39 53.32 39 54 39 C54 39.66 54 40.32 54 41 C57.20959534 41.80239884 59.25187355 42.29531307 62.375 41.0625 C65.00509965 37.72429659 64.46340729 35.17066563 64 31 C59.56770648 28.04513765 56.43229352 28.04513765 52 31 Z M97 81 C94.72328262 83.74841911 94.72328262 83.74841911 95.1875 86.5 C96.06985847 89.21494913 96.72326063 90.3135264 99 92 C101.41569259 93.01303238 102.58661645 93.10942506 105.125 92.4375 C107.91509818 90.29842473 108.39699426 88.41703251 109 85 C108.09762034 82.10700447 108.09762034 82.10700447 106 80 C102.35815081 78.59928877 100.20720392 78.78813523 97 81 Z M53.625 130.9375 C50.99490035 134.27570341 51.53659271 136.82933437 52 141 C55.46923881 143.31282587 56.92205575 143.42478586 61 143 C63.08477638 141.56222319 63.81239178 140.40201761 64.875 138.125 C65.06531889 134.8895789 64.05487003 133.45258681 62 131 C58.67465706 129.86796836 56.90408545 129.64312417 53.625 130.9375 Z M-145 228 C-147.31332486 231.46998729 -147.33957563 232.92509248 -147 237 C-146.01 238.485 -146.01 238.485 -145 240 C-139.55251889 240.73425347 -139.55251889 240.73425347 -134.9375 238.375 C-133.70468693 235.25187355 -134.19760116 233.20959534 -135 230 C-135.66 230 -136.32 230 -137 230 C-137 229.34 -137 228.68 -137 228 C-138.27875 227.938125 -139.5575 227.87625 -140.875 227.8125 C-141.59429687 227.77769531 -142.31359375 227.74289062 -143.0546875 227.70703125 C-144.01761719 227.85205078 -144.01761719 227.85205078 -145 228 Z M-45.0625 229.625 C-46.31856608 232.80703406 -45.92070253 234.74212952 -45 238 C-43.06268472 240.36410488 -43.06268472 240.36410488 -39.5625 240.3125 C-36.14346334 240.26665828 -36.14346334 240.26665828 -34.0625 238.875 C-32.51275485 236.14015561 -32.67837924 234.0875593 -33 231 C-33.66 230.01 -34.32 229.02 -35 228 C-40.44748111 227.26574653 -40.44748111 227.26574653 -45.0625 229.625 Z M-94.1875 272.75 C-96.47009965 275.55932556 -96.47009965 275.55932556 -97 279 C-95.75652756 281.81417448 -94.91942389 283.54028806 -92.125 284.9375 C-89.16137979 285.0246653 -87.54642628 284.54125801 -85 283 C-83.45549217 279.91098434 -82.66155361 278.10764275 -83.6875 274.75 C-85.05720346 272.72149428 -85.05720346 272.72149428 -88 271 C-91.94631527 270.58353663 -91.94631527 270.58353663 -94.1875 272.75 Z " fill="#322F30" transform="translate(340,164)"/>
<path d="M0 0 C4.3938504 2.9292336 7.26804961 5.54835683 8.625 10.75 C9.45902434 17.18866793 8.8611496 21.77924275 5.0625 27.12109375 C3.15607973 29.28135803 1.26505875 30.60835297 -1.375 31.75 C-2.035 31.75 -2.695 31.75 -3.375 31.75 C-3.375 57.49 -3.375 83.23 -3.375 109.75 C9.825 109.75 23.025 109.75 36.625 109.75 C36.58375 104.2225 36.5425 98.695 36.5 93 C36.50241699 91.26137695 36.50483398 89.52275391 36.50732422 87.73144531 C36.4837915 86.34696334 36.4580603 84.96251624 36.4296875 83.578125 C36.4387915 82.86446777 36.44789551 82.15081055 36.45727539 81.41552734 C36.45430366 79.05646645 36.45430366 79.05646645 35.625 75.75 C32.81264439 73.3436327 32.81264439 73.3436327 29.625 71.75 C26.01561589 67.9506483 25.31568591 64.90381391 25.125 59.8125 C25.33966068 54.22439769 26.09045007 51.10021529 29.625 46.75 C34.64585223 42.75381149 38.67655692 42.16360912 45.04296875 42.43359375 C50.07155577 43.04980487 53.13489893 44.9919549 56.4375 48.6875 C59.83210743 53.4399504 60.43132968 57.92767138 59.625 63.75 C58.52778307 66.56730809 57.17105125 69.15484254 55.625 71.75 C54.965 71.75 54.305 71.75 53.625 71.75 C53.625 72.41 53.625 73.07 53.625 73.75 C51.645 74.41 49.665 75.07 47.625 75.75 C47.625 86.97 47.625 98.19 47.625 109.75 C52.575 109.75 57.525 109.75 62.625 109.75 C67.0625 111.25 67.0625 111.25 69.625 112.75 C68.625 115.75 68.625 115.75 66.28207397 117.41621399 C61.16970924 119.28076489 56.5123748 119.14442037 51.11181641 119.09057617 C49.96001892 119.09101425 48.80822144 119.09145233 47.621521 119.09190369 C43.82302772 119.08981745 40.02497846 119.06649329 36.2265625 119.04296875 C33.5895512 119.03737223 30.95253678 119.0331024 28.31552124 119.03010559 C22.08951781 119.02079631 15.86367317 118.99619783 9.63773954 118.96605712 C2.54706853 118.93247817 -4.54361022 118.91601835 -11.634341 118.90097082 C-26.21464243 118.86964716 -40.79481899 118.81690853 -55.375 118.75 C-55.705 117.43 -56.035 116.11 -56.375 114.75 C-55.715 114.75 -55.055 114.75 -54.375 114.75 C-54.375 113.76 -54.375 112.77 -54.375 111.75 C-40.515 111.75 -26.655 111.75 -12.375 111.75 C-12.375 85.35 -12.375 58.95 -12.375 31.75 C-14.025 31.42 -15.675 31.09 -17.375 30.75 C-21.5750036 28.04999768 -23.71655601 25.46347239 -25.375 20.75 C-26.13824073 14.42451179 -25.66785535 9.23809224 -22.375 3.75 C-15.60574557 -1.60899309 -8.16326398 -3.0234311 0 0 Z M-13.1875 10.9375 C-15.62280215 13.49355462 -15.62280215 13.49355462 -15.4375 16.3125 C-14.1476649 19.27153346 -12.99995432 20.85419966 -10.375 22.75 C-7.4956006 22.67977075 -5.9612058 22.16871843 -3.625 20.5 C-1.91995879 18.11294231 -1.375 16.70659783 -1.375 13.75 C-3.45833333 10.83333333 -3.45833333 10.83333333 -6.375 8.75 C-10.44260656 8.34070626 -10.44260656 8.34070626 -13.1875 10.9375 Z M38.8125 53.75 C36.40878967 55.63675953 36.40878967 55.63675953 35.5625 58.6875 C35.35407585 61.79721699 35.35407585 61.79721699 37.1875 64.125 C40.2972342 66.19815613 41.95696781 66.37434591 45.625 65.75 C47.74170357 64.28958234 47.74170357 64.28958234 48.625 61.75 C48.39631906 58.06184707 48.39631906 58.06184707 47.625 54.75 C43.30712861 52.84016935 43.30712861 52.84016935 38.8125 53.75 Z " fill="#2E2B2B" transform="translate(258.375,42.25)"/>
<path d="M0 0 C0.33 0 0.66 0 1 0 C1 4.95 1 9.9 1 15 C12.22 15 23.44 15 35 15 C35.66 13.02 36.32 11.04 37 9 C37.66 9 38.32 9 39 9 C39 8.34 39 7.68 39 7 C43.88010836 3.60514201 47.52109701 2.28669987 53.50390625 2.55078125 C59.0560276 3.54998932 62.64980457 6.61604969 66.5 10.5625 C68.74237547 15.70127713 68.75817311 20.48049974 68 26 C66.25 29.5 66.25 29.5 64 32 C63.34 32.763125 62.68 33.52625 62 34.3125 C58.29924966 37.4350081 53.98497559 37.27649478 49.31640625 37.22265625 C45.02801575 36.81045008 41.58247173 35.25506379 38.1875 32.5625 C37 31 37 31 35 27 C23.78 26.67 12.56 26.34 1 26 C1 39.2 1 52.4 1 66 C26.41 65.67 51.82 65.34 78 65 C78.66 63.68 79.32 62.36 80 61 C80.66 61 81.32 61 82 61 C82.20625 60.401875 82.4125 59.80375 82.625 59.1875 C84.63843195 55.98431281 86.43830904 55.27203249 90 54 C95.96205122 53.28377956 100.94744419 53.47496106 106 57 C110.2385253 61.21548984 112.13953707 64.81988605 112.25 70.8125 C112.18447506 76.43945422 110.73889435 79.91332678 107.125 84.25 C102.62013299 87.95989048 98.28861699 88.48864286 92.58203125 88.39453125 C88.43353012 87.7606453 85.07614555 85.83555316 82 83 C82 82.34 82 81.68 82 81 C81.34 81 80.68 81 80 81 C79.34 79.68 78.68 78.36 78 77 C52.59 76.67 27.18 76.34 1 76 C1 89.2 1 102.4 1 116 C9.29125 115.938125 9.29125 115.938125 17.75 115.875 C19.48862305 115.87741699 21.22724609 115.87983398 23.01855469 115.88232422 C24.40303666 115.8587915 25.78748376 115.8330603 27.171875 115.8046875 C27.88553223 115.8137915 28.59918945 115.82289551 29.33447266 115.83227539 C31.69353355 115.82930366 31.69353355 115.82930366 35 115 C37.4063673 112.18764439 37.4063673 112.18764439 39 109 C43.68622742 104.54808395 47.93833748 104.5584792 54.09765625 104.56640625 C60.34401221 105.49957652 63.36314403 109.25188248 67 114 C69.40018697 118.80037395 68.49622483 125.42375644 66.9375 130.375 C63.80045306 134.62519262 60.00305271 137.33231576 55 139 C48.49485054 139.55128385 44.5790242 138.32367399 39 135 C39 134.34 39 133.68 39 133 C42.46153846 130 42.46153846 130 45 130 C44.67 128.68 44.34 127.36 44 126 C44.69867188 126.0721875 45.39734375 126.144375 46.1171875 126.21875 C47.02726562 126.3115625 47.93734375 126.404375 48.875 126.5 C49.77992188 126.5928125 50.68484375 126.685625 51.6171875 126.78125 C53.93313211 127.03047295 53.93313211 127.03047295 56 127 C56.68066494 124.00507424 57.17005683 121.69912251 56.4375 118.6875 C54.30877461 116.1885615 52.17186815 116.33040293 49 116 C48.01 115.505 48.01 115.505 47 115 C46.01 114.67 45.02 114.34 44 114 C43.67 113.01 43.34 112.02 43 111 C42.59398056 111.42632721 42.18796112 111.85265442 41.76963806 112.29190063 C37.84416676 116.07425022 35.19599734 117.6832259 29.71815491 117.67977905 C28.96682785 117.64881134 28.21550079 117.61784363 27.44140625 117.5859375 C26.25767677 117.57320297 26.25767677 117.57320297 25.05003357 117.56021118 C22.55274384 117.52687457 20.05879751 117.451646 17.5625 117.375 C15.860073 117.34487428 14.15759489 117.31750305 12.45507812 117.29296875 C8.30211574 117.22714991 4.15162274 117.12377745 0 117 C-0.02480684 111.14673162 -0.04291055 105.29349418 -0.05493164 99.44018555 C-0.05994564 97.45092231 -0.06675849 95.46166273 -0.07543945 93.47241211 C-0.08763384 90.60529678 -0.09325777 87.73823038 -0.09765625 84.87109375 C-0.10281754 83.98852402 -0.10797882 83.10595428 -0.11329651 82.19664001 C-0.11363926 78.38327124 -0.02856505 74.7164002 0.56860352 70.94555664 C0.71096436 69.97352295 0.8533252 69.00148926 1 68 C0.67 67.67 0.34 67.34 0 67 C-0.09268999 65.64905018 -0.11747326 64.29332909 -0.11352539 62.93920898 C-0.11344986 62.07839218 -0.11337433 61.21757538 -0.11329651 60.33067322 C-0.10813522 59.39526199 -0.10297394 58.45985077 -0.09765625 57.49609375 C-0.0962413 56.54307877 -0.09482635 55.59006378 -0.09336853 54.60816956 C-0.08775152 51.55124835 -0.07519616 48.49439923 -0.0625 45.4375 C-0.05748719 43.37044376 -0.05292391 41.30338638 -0.04882812 39.23632812 C-0.03777656 34.15752412 -0.02050055 29.0787743 0 24 C1.32 23.34 2.64 22.68 4 22 C3.34 21.34 2.68 20.68 2 20 C2.375 17.875 2.375 17.875 3 16 C2.01 16 1.02 16 0 16 C0 10.72 0 5.44 0 0 Z M45 16 C44.63702064 17.97747122 44.63702064 17.97747122 44.8125 20.125 C44.874375 21.40375 44.93625 22.6825 45 24 C45.66 24 46.32 24 47 24 C47 24.66 47 25.32 47 26 C50.20959534 26.80239884 52.25187355 27.29531307 55.375 26.0625 C58.00509965 22.72429659 57.46340729 20.17066563 57 16 C52.56770648 13.04513765 49.43229352 13.04513765 45 16 Z M90 66 C87.72328262 68.74841911 87.72328262 68.74841911 88.1875 71.5 C89.06985847 74.21494913 89.72326063 75.3135264 92 77 C94.41569259 78.01303238 95.58661645 78.10942506 98.125 77.4375 C100.91509818 75.29842473 101.39699426 73.41703251 102 70 C101.09762034 67.10700447 101.09762034 67.10700447 99 65 C95.35815081 63.59928877 93.20720392 63.78813523 90 66 Z " fill="#232021" transform="translate(347,179)"/>
<path d="M0 0 C3.32223207 2.52489638 5.17117823 4.70181508 7.125 8.375 C7.125 9.365 7.125 10.355 7.125 11.375 C8.11836365 11.36167633 9.11172729 11.34835266 10.13519287 11.33462524 C19.49326697 11.21303496 28.85118101 11.12307157 38.20986557 11.06412697 C43.02142995 11.03280378 47.8323571 10.99031344 52.64355469 10.92236328 C57.28607702 10.85720517 61.92798622 10.8213014 66.57093048 10.80573654 C68.34285386 10.79464372 70.11474338 10.77298141 71.88640594 10.74061966 C74.3673928 10.69710057 76.84584177 10.69106355 79.32714844 10.69384766 C80.06082642 10.672276 80.79450439 10.65070435 81.55041504 10.628479 C83.60687256 10.6534729 83.60687256 10.6534729 87.125 11.375 C89.42486572 14.41757202 89.42486572 14.41757202 91.125 17.375 C92.115 17.375 93.105 17.375 94.125 17.375 C94.125 36.845 94.125 56.315 94.125 76.375 C93.135 76.87 93.135 76.87 92.125 77.375 C92.125 76.385 92.125 75.395 92.125 74.375 C90.475 74.375 88.825 74.375 87.125 74.375 C87.125 73.055 87.125 71.735 87.125 70.375 C74.915 70.375 62.705 70.375 50.125 70.375 C49.795 72.685 49.465 74.995 49.125 77.375 C48.465 77.375 47.805 77.375 47.125 77.375 C47.125 78.035 47.125 78.695 47.125 79.375 C41.81031317 83.06575474 37.56434905 83.81156604 31.125 83.375 C25.25871883 81.55442998 22.57539539 79.24614644 19.125 74.375 C17.41657458 69.24972373 17.19313072 63.44567769 18.7734375 58.23828125 C20.64215568 54.55674672 23.23478352 51.8785345 26.9375 50.03515625 C32.81926745 48.26012286 39.63524022 48.19439952 45.1875 51 C48.125 53.375 48.125 53.375 51.125 59.375 C62.345 59.705 73.565 60.035 85.125 60.375 C85.125 47.175 85.125 33.975 85.125 20.375 C71.58558631 20.32032456 71.58558631 20.32032456 58.046875 20.33984375 C52.52279527 20.36426615 46.99964619 20.38008735 41.47558594 20.34423828 C37.02058101 20.31587212 32.56719972 20.32645654 28.11227798 20.36380005 C26.41467752 20.37123402 24.71695594 20.36474442 23.0194664 20.34396362 C13.90963412 19.88133227 13.90963412 19.88133227 5.81207275 23.15234375 C4.31621751 25.16616355 3.25500823 27.14582557 2.125 29.375 C-2.83741504 32.98402912 -7.94743682 33.07122276 -13.875 32.375 C-19.15597404 30.58146165 -21.67395251 27.76500798 -24.875 23.375 C-26.68993882 17.93018355 -26.61520057 12.37354153 -24.625 7 C-19.03142723 -1.39035915 -9.42391546 -4.87443903 0 0 Z M-13.75 10.5 C-16.13504609 13.13097916 -16.13504609 13.13097916 -15.875 16 C-14.49783395 19.27076936 -13.16158824 20.73170588 -10 22.3125 C-7.65499803 22.5737203 -7.65499803 22.5737203 -5.1875 20.75 C-2.77525994 18.55908891 -2.77525994 18.55908891 -1.8125 15.875 C-1.64253014 13.25045797 -1.64253014 13.25045797 -3.5 11.125 C-7.59969002 8.10417578 -9.49347684 7.35387419 -13.75 10.5 Z M30.9375 60.5625 C28.62951765 62.87048235 28.20251591 64.11933177 28.125 67.375 C29.02737966 70.26799553 29.02737966 70.26799553 31.125 72.375 C34.50533472 72.95037612 36.40602583 72.71556671 39.5 71.25 C41.38086477 69.40737248 41.38086477 69.40737248 41.625 66.4375 C41.01975119 62.73035102 40.14612 61.55692 37.125 59.375 C33.29606254 59.05693876 33.29606254 59.05693876 30.9375 60.5625 Z " fill="#363233" transform="translate(66.875,234.625)"/>
<path d="M0 0 C5.28 0 10.56 0 16 0 C18.71382451 6.49379437 20.9908702 12.97317999 22.97265625 19.7265625 C23.69243771 22.02001064 24.48713445 24.29065703 25.3359375 26.53955078 C27.22112528 31.53516106 28.93730677 36.58454245 30.65234375 41.640625 C30.99374893 42.64405945 31.33515411 43.6474939 31.68690491 44.68133545 C32.40602707 46.79566033 33.1245582 48.91018631 33.8425293 51.02490234 C34.92957685 54.22666335 36.01833078 57.42783986 37.10742188 60.62890625 C38.79166965 65.58064979 40.47028803 70.53427867 42.14715576 75.48852539 C42.89085153 77.67857716 43.64097733 79.86622966 44.39501953 82.05273438 C44.94391846 83.65858398 44.94391846 83.65858398 45.50390625 85.296875 C45.80240479 86.16151367 46.10090332 87.02615234 46.40844727 87.91699219 C47 90 47 90 47 93 C42.38 93 37.76 93 33 93 C30.19377711 86.28510952 27.87777201 79.57470364 25.83203125 72.58984375 C25.24848616 70.0961745 25.24848616 70.0961745 24 69 C24 67.35 24 65.7 24 64 C13.44 64 2.88 64 -8 64 C-8.33 66.31 -8.66 68.62 -9 71 C-9.56765087 72.76943423 -10.19126174 74.52210331 -10.875 76.25 C-12.96813 81.75783479 -14.51902887 87.29826116 -16 93 C-20.95 93 -25.9 93 -31 93 C-28.81640828 84.43015031 -26.03109011 76.15218346 -23.04470825 67.83856201 C-21.69087618 64.06762942 -20.35163238 60.29152107 -19.01171875 56.515625 C-18.74858383 55.77480682 -18.48544891 55.03398865 -18.21434021 54.27072144 C-13.54282156 41.09596325 -9.17549359 27.8285738 -5.140625 14.4453125 C-4.3211727 11.97011755 -3.4637402 9.67978698 -2.421875 7.3046875 C-0.87382876 3.95046116 -0.87382876 3.95046116 0 0 Z M7 16 C6.74605469 16.89460938 6.49210937 17.78921875 6.23046875 18.7109375 C5.15889446 22.47549436 4.0804545 26.2379827 3 30 C2.59007812 31.44052734 2.59007812 31.44052734 2.171875 32.91015625 C1.0948172 36.61683923 -0.01649525 40.17520944 -1.625 43.6875 C-3.36727932 47.49671403 -3.36727932 47.49671403 -4 54 C4.25 54 12.5 54 21 54 C14.69587779 34.93196174 14.69587779 34.93196174 8 16 C7.67 16 7.34 16 7 16 Z " fill="#222222" transform="translate(229,203)"/>
<path d="M0 0 C0.33 0 0.66 0 1 0 C1 26.4 1 52.8 1 80 C-12.86 80 -26.72 80 -41 80 C-41.33 81.98 -41.66 83.96 -42 86 C-26.71835223 86.04675171 -11.43670776 86.08200439 3.8449955 86.10362434 C10.94079608 86.11393035 18.03655219 86.12797775 25.13232422 86.15087891 C31.97930702 86.17296655 38.82624356 86.18456701 45.67325974 86.18975449 C48.28634748 86.19345165 50.89943268 86.20067119 53.51250076 86.21146011 C57.17066172 86.22596422 60.82863136 86.22797836 64.48681641 86.22705078 C66.10953964 86.23783661 66.10953964 86.23783661 67.76504517 86.24884033 C72.90840265 86.23471535 77.19195505 86.0784781 82 84 C81.24849977 80.72226496 81.24849977 80.72226496 78 79 C86.42604271 79.58110639 91.36637599 82.53790187 97 89 C97 89.99 97 90.98 97 92 C96.34 92 95.68 92 95 92 C93.66666667 95 93.66666667 95 95 98 C94.01 98.495 94.01 98.495 93 99 C93 148.83 93 198.66 93 250 C92.67 250 92.34 250 92 250 C91.99761165 249.24277838 91.99522329 248.48555676 91.99276257 247.70538902 C91.9336159 229.27698764 91.85806794 210.84872023 91.76428509 192.42046165 C91.71932744 183.50867267 91.6799127 174.59692364 91.65356445 165.68505859 C91.63058412 157.91709959 91.59718571 150.14926704 91.55129844 142.38140833 C91.52736666 138.26871213 91.5086376 134.15614116 91.50238609 130.04337692 C91.496335 126.17079149 91.4763345 122.2985265 91.44572449 118.42605972 C91.43694462 117.00632706 91.43322159 115.58655253 91.43499184 114.16679382 C91.43664865 112.22455212 91.41815308 110.28232471 91.39872742 108.34017944 C91.39181397 106.71137124 91.39181397 106.71137124 91.38476086 105.04965782 C90.94007472 101.5250255 89.67855025 99.10513776 88 96 C88 95.34 88 94.68 88 94 C87.34 94 86.68 94 86 94 C86 93.34 86 92.68 86 92 C85.38125 91.855625 84.7625 91.71125 84.125 91.5625 C82 91 82 91 80 90 C78.03479837 89.90181799 76.06620692 89.86929091 74.09855652 89.86628723 C72.84090988 89.86202225 71.58326324 89.85775726 70.2875061 89.85336304 C68.88592526 89.85371258 67.48434444 89.85417413 66.08276367 89.85473633 C64.61276667 89.8517455 63.14277045 89.84834315 61.67277527 89.84455872 C57.67268137 89.8357055 53.67260884 89.83338001 49.67250609 89.83274293 C46.33507889 89.83179458 42.99765669 89.82811703 39.66023141 89.82457083 C31.78577345 89.8164208 23.91132693 89.81398705 16.03686523 89.81469727 C7.91169067 89.81529781 -0.21341744 89.80475193 -8.33857518 89.7889536 C-15.31103828 89.7758792 -22.28347966 89.77051335 -29.25595492 89.77115268 C-33.42169095 89.77140775 -37.58736798 89.76855168 -41.75309181 89.75797462 C-45.6723756 89.74829563 -49.59154399 89.74821308 -53.51083183 89.75549126 C-54.94874871 89.75653744 -56.38667276 89.75417222 -57.82457733 89.7481308 C-59.78890553 89.7404128 -61.75327301 89.74625419 -63.71760559 89.75276184 C-64.81655057 89.75221707 -65.91549555 89.75167231 -67.04774189 89.75111103 C-70.07028589 90.00592542 -72.26542334 90.72241418 -75 92 C-75.33 90.68 -75.66 89.36 -76 88 C-76.721875 88.165 -77.44375 88.33 -78.1875 88.5 C-80.86427545 88.97587119 -83.28949487 89.077443 -86 89 C-84.3867555 84.16026649 -80.34735021 82.36696602 -76 80 C-68.12093387 76.7788079 -59.2780941 78 -51 78 C-51 66.78 -51 55.56 -51 44 C-52.98 43.34 -54.96 42.68 -57 42 C-57 41.34 -57 40.68 -57 40 C-57.66 40 -58.32 40 -59 40 C-62.92186324 34.3623216 -64.09072406 29.85283194 -63 23 C-61.02421182 17.4424354 -57.24221924 13.62110962 -52 11 C-46.63064774 10.50298864 -40.94676699 10.05355968 -36 12.5 C-31.67881311 16.10098907 -29.50219053 19.67869444 -28.65625 25.2734375 C-28.44123832 30.52330611 -29.42767469 34.42697723 -32 39 C-32.99 39.33 -33.98 39.66 -35 40 C-35 40.66 -35 41.32 -35 42 C-36.32 42.66 -37.64 43.32 -39 44 C-39.33 55.22 -39.66 66.44 -40 78 C-26.8 78 -13.6 78 0 78 C0 52.26 0 26.52 0 0 Z M-51 23 C-52.39935013 25.79870027 -52.25265405 27.90498792 -52 31 C-51 33 -51 33 -49 34 C-45.34740261 34.54400387 -43.6566114 34.43774093 -40.5625 32.375 C-38.72907585 30.04721699 -38.72907585 30.04721699 -38.9375 26.9375 C-39.76167287 23.83545199 -39.76167287 23.83545199 -42.4375 22.125 C-46.13413863 20.50208548 -47.5926295 21.02152681 -51 23 Z " fill="#504D4E" transform="translate(245,74)"/>
<path d="M0 0 C3.02020164 1.43062183 4.68653549 2.34765495 6.15625 5.40625 C7.33465007 10.42536141 7.21113203 15.24020566 7.125 20.375 C7.11597656 21.39722656 7.10695313 22.41945312 7.09765625 23.47265625 C7.0742043 25.98201522 7.04138355 28.49088336 7 31 C7.99 31 8.98 31 10 31 C10.33 31.99 10.66 32.98 11 34 C10.505 34.495 10.505 34.495 10 35 C10.66 35.66 11.32 36.32 12 37 C12 37.66 12 38.32 12 39 C10.35 39 8.7 39 7 39 C7 53.19 7 67.38 7 82 C8.32 82.33 9.64 82.66 11 83 C10.01 83.99 10.01 83.99 9 85 C7.57882366 89.74394282 7.77552626 94.76413675 7.68359375 99.67578125 C7.66281265 100.6009404 7.64203156 101.52609955 7.62062073 102.47929382 C7.5554344 105.42362307 7.49638442 108.36803865 7.4375 111.3125 C7.39428536 113.31315983 7.35067014 115.31381106 7.30664062 117.31445312 C7.1990338 122.20954836 7.09973061 127.10471264 7 132 C19.54 131.67 32.08 131.34 45 131 C45.66 129.68 46.32 128.36 47 127 C49.125 125.75 49.125 125.75 51 125 C51.33 125.99 51.66 126.98 52 128 C52.99 128.33 53.98 128.66 55 129 C54.67902344 129.53496094 54.35804688 130.06992187 54.02734375 130.62109375 C52.40691637 134.37333813 52.59631631 138.18000339 52.44140625 142.22265625 C52 145 52 145 50.6328125 146.859375 C48.38236856 148.43145545 46.67805151 148.21713931 44 148 C43.34 146.02 42.68 144.04 42 142 C30.78 142 19.56 142 8 142 C8 146.95 8 151.9 8 157 C7.67 158.98 7.34 160.96 7 163 C6.01 163 5.02 163 4 163 C3.505 163.99 3.505 163.99 3 165 C0.3333581 166.33332095 -1.16680303 165.67102033 -4 165 C-4 163.35 -4 161.7 -4 160 C-3.34 160 -2.68 160 -2 160 C-2.00699732 159.22363001 -2.01399464 158.44726002 -2.02120399 157.64736366 C-2.19057808 138.7782485 -2.34887956 119.9090704 -2.49477577 101.03975868 C-2.56559788 91.9147969 -2.64020177 82.78989499 -2.72363281 73.66503906 C-2.79632066 65.71412667 -2.86199016 57.76319302 -2.91914403 49.81215322 C-2.94966903 45.60005091 -2.98376775 41.38804442 -3.02626419 37.17604446 C-3.06611789 33.21500451 -3.09661718 29.25400479 -3.11981392 25.29283333 C-3.13001832 23.83589255 -3.1436968 22.3789715 -3.16103554 20.92209816 C-3.18412527 18.93916925 -3.19372265 16.95609669 -3.20254517 14.97305298 C-3.2117631 13.86137064 -3.22098103 12.7496883 -3.23047829 11.60431862 C-3 9 -3 9 -1 7 C-1.32041397 4.39719432 -1.32041397 4.39719432 -2 2 C-1.34 2 -0.68 2 0 2 C0 1.34 0 0.68 0 0 Z " fill="#302D2E" transform="translate(340,164)"/>
<path d="M0 0 C4.3938504 2.9292336 7.26804961 5.54835683 8.625 10.75 C9.46034908 17.19889493 8.8531624 21.9378575 5.0703125 27.3203125 C3.625 28.75 3.625 28.75 0.8125 29.25 C0.090625 29.085 -0.63125 28.92 -1.375 28.75 C-1.705 29.41 -2.035 30.07 -2.375 30.75 C-3.035 30.75 -3.695 30.75 -4.375 30.75 C-4.045 58.14 -3.715 85.53 -3.375 113.75 C-6.67806592 114.85102197 -8.09085695 114.70067299 -11.375 113.75 C-12.90009489 110.69981022 -12.50475944 107.52450387 -12.48852539 104.17919922 C-12.48867142 103.39862152 -12.48881744 102.61804382 -12.4889679 101.81381226 C-12.48826986 99.22740931 -12.48048257 96.64107791 -12.47265625 94.0546875 C-12.47079168 92.26392659 -12.46936796 90.47316517 -12.46836853 88.68240356 C-12.46454641 83.96415809 -12.45471871 79.2459433 -12.44366455 74.52770996 C-12.43344389 69.71509211 -12.4288695 64.90246932 -12.42382812 60.08984375 C-12.41309619 50.64321567 -12.3960234 41.19661038 -12.375 31.75 C-13.14585937 31.61980469 -13.91671875 31.48960938 -14.7109375 31.35546875 C-19.22478682 30.3295939 -21.60460434 27.86574544 -24.1875 24.125 C-26.18380664 18.45128641 -26.31131451 12.58042409 -24.25 6.875 C-19.10178162 -1.70536397 -8.89938471 -3.29606841 0 0 Z M-13.1875 10.9375 C-15.62280215 13.49355462 -15.62280215 13.49355462 -15.4375 16.3125 C-14.1476649 19.27153346 -12.99995432 20.85419966 -10.375 22.75 C-7.4956006 22.67977075 -5.9612058 22.16871843 -3.625 20.5 C-1.91995879 18.11294231 -1.375 16.70659783 -1.375 13.75 C-3.45833333 10.83333333 -3.45833333 10.83333333 -6.375 8.75 C-10.44260656 8.34070626 -10.44260656 8.34070626 -13.1875 10.9375 Z " fill="#232021" transform="translate(258.375,42.25)"/>
<path d="M0 0 C0.33 0 0.66 0 1 0 C1 4.95 1 9.9 1 15 C12.22 15 23.44 15 35 15 C35.66 13.02 36.32 11.04 37 9 C37.66 9 38.32 9 39 9 C39 8.34 39 7.68 39 7 C43.88010836 3.60514201 47.52109701 2.28669987 53.50390625 2.55078125 C59.0560276 3.54998932 62.64980457 6.61604969 66.5 10.5625 C68.74237547 15.70127713 68.75817311 20.48049974 68 26 C66.25 29.5 66.25 29.5 64 32 C63.34 32.763125 62.68 33.52625 62 34.3125 C58.29924966 37.4350081 53.98497559 37.27649478 49.31640625 37.22265625 C45.02801575 36.81045008 41.58247173 35.25506379 38.1875 32.5625 C37 31 37 31 35 27 C23.78 26.67 12.56 26.34 1 26 C1 39.2 1 52.4 1 66 C26.41 65.67 51.82 65.34 78 65 C78.66 63.68 79.32 62.36 80 61 C80.66 61 81.32 61 82 61 C82.268125 60.38125 82.53625 59.7625 82.8125 59.125 C84 57 84 57 87 55 C88.485 55.495 88.485 55.495 90 56 C89.21625 56.4125 88.4325 56.825 87.625 57.25 C84.81561299 59.12292467 84.34691531 60.03678631 83 63 C81.42303467 65.1005249 81.42303467 65.1005249 79 67 C76.29171794 67.37433085 73.99664359 67.50776209 71.29394531 67.45410156 C70.13727104 67.45497772 70.13727104 67.45497772 68.95722961 67.45587158 C66.41373347 67.45308947 63.87141586 67.42199291 61.328125 67.390625 C59.56264893 67.38316303 57.79716457 67.37746989 56.03167725 67.37347412 C51.38886579 67.35821428 46.74655626 67.3189296 42.10394287 67.2746582 C36.53148267 67.22651188 30.95885447 67.20817313 25.38624573 67.18484497 C16.92381492 67.1460786 8.46248503 67.06942786 0 67 C0 52.81 0 38.62 0 24 C1.32 23.34 2.64 22.68 4 22 C3.34 21.34 2.68 20.68 2 20 C2.375 17.875 2.375 17.875 3 16 C2.01 16 1.02 16 0 16 C0 10.72 0 5.44 0 0 Z M45 16 C44.63702064 17.97747122 44.63702064 17.97747122 44.8125 20.125 C44.874375 21.40375 44.93625 22.6825 45 24 C45.66 24 46.32 24 47 24 C47 24.66 47 25.32 47 26 C50.20959534 26.80239884 52.25187355 27.29531307 55.375 26.0625 C58.00509965 22.72429659 57.46340729 20.17066563 57 16 C52.56770648 13.04513765 49.43229352 13.04513765 45 16 Z " fill="#3B3839" transform="translate(347,179)"/>
<path d="M0 0 C4.29 0 8.58 0 13 0 C13 30.69 13 61.38 13 93 C8.71 93 4.42 93 0 93 C0 62.31 0 31.62 0 0 Z " fill="#1C1C1C" transform="translate(288,203)"/>
<path d="M0 0 C5.28 0 10.56 0 16 0 C16.33 10.89 16.66 21.78 17 33 C17.66 33.33 18.32 33.66 19 34 C19 34.66 19 35.32 19 36 C20.65 36 22.3 36 24 36 C24 24.12 24 12.24 24 0 C38.19 0 52.38 0 67 0 C67 26.07 67 52.14 67 79 C66.67 79 66.34 79 66 79 C66 53.26 66 27.52 66 1 C52.8 1 39.6 1 26 1 C26.33 12.22 26.66 23.44 27 35 C28.32 35.66 29.64 36.32 31 37 C31 37.66 31 38.32 31 39 C31.99 39.33 32.98 39.66 34 40 C36.97622982 45.29107524 37.7936189 49.97070089 37 56 C35.03565961 61.67476113 31.37199338 65.31400331 26 68 C20.54505412 68.49813129 15.62976519 68.71117027 10.5625 66.5 C5.82019095 61.87335703 2.73755391 57.73527308 2.4375 50.9375 C2.67319655 46.01828487 4.21416172 43.00464252 7 39 C7.66 39 8.32 39 9 39 C9 38.34 9 37.68 9 37 C10.98 36.34 12.96 35.68 15 35 C15 23.78 15 12.56 15 1 C10.05 1 5.1 1 0 1 C0 0.67 0 0.34 0 0 Z M16 45 C13.68667514 48.46998729 13.66042437 49.92509248 14 54 C14.99 55.485 14.99 55.485 16 57 C21.44748111 57.73425347 21.44748111 57.73425347 26.0625 55.375 C27.29531307 52.25187355 26.80239884 50.20959534 26 47 C25.34 47 24.68 47 24 47 C24 46.34 24 45.68 24 45 C22.72125 44.938125 21.4425 44.87625 20.125 44.8125 C19.40570313 44.77769531 18.68640625 44.74289062 17.9453125 44.70703125 C16.98238281 44.85205078 16.98238281 44.85205078 16 45 Z " fill="#666364" transform="translate(179,347)"/>
<path d="M0 0 C0.33 0 0.66 0 1 0 C1.00146656 0.76752909 1.00293312 1.53505817 1.00444412 2.32584572 C1.04150156 21.00462255 1.10050213 39.6832122 1.18390274 58.3618412 C1.22370604 67.39471356 1.25609196 76.42749863 1.27099609 85.46044922 C1.28400593 93.33390808 1.31095345 101.20717499 1.35461307 109.08052576 C1.37724301 113.24915092 1.39290977 117.4175392 1.39188385 121.58623123 C1.39113813 125.51141978 1.40905287 129.4360844 1.44116783 133.36113739 C1.44967385 134.80021907 1.45141194 136.23935947 1.44580269 137.67845535 C1.43915302 139.64695828 1.45946065 141.61549671 1.48101807 143.58389282 C1.48470524 144.68451365 1.48839241 145.78513447 1.49219131 146.91910744 C2.11853264 150.71914157 3.76712725 152.90869951 6 156 C6 156.66 6 157.32 6 158 C10.89201717 159.9832502 14.67454397 161.12677545 19.97941589 161.15821838 C21.22883469 161.1680072 22.47825348 161.17779602 23.76553345 161.18788147 C25.15252647 161.19378564 26.5395199 161.19959609 27.92651367 161.20532227 C29.38506854 161.21490105 30.84362063 161.22491113 32.3021698 161.23532104 C36.26465795 161.26237614 40.22715801 161.28338243 44.18968749 161.30332303 C48.32971228 161.32517884 52.4697003 161.35256951 56.60969543 161.37937927 C64.45067058 161.42931163 72.29166613 161.47424845 80.13268119 161.51740164 C89.05884459 161.56676937 97.98497111 161.62168922 106.91109884 161.67708123 C125.27403165 161.79090961 143.63699927 161.8977468 162 162 C162 162.33 162 162.66 162 163 C160.84235846 162.99861731 160.84235846 162.99861731 159.66133022 162.99720669 C140.87382921 162.97511252 122.08633078 162.95856944 103.29881954 162.94818783 C94.21328705 162.94303379 85.12776325 162.93600808 76.04223633 162.92456055 C68.12235606 162.91458647 60.20248207 162.90814008 52.28259569 162.90591151 C48.08995413 162.90460903 43.89733054 162.90155247 39.70469475 162.89426994 C35.75591373 162.88746677 31.80715805 162.88539178 27.85837173 162.88689232 C26.4116216 162.88661792 24.96487059 162.88463835 23.51812553 162.88079453 C21.53686517 162.87579015 19.55559111 162.87761796 17.57432556 162.87974548 C15.9137155 162.87836279 15.9137155 162.87836279 14.21955776 162.87695217 C10.75728026 163.00927647 7.41960577 163.45482538 4 164 C4 163.34 4 162.68 4 162 C3.34 162.66 2.68 163.32 2 164 C2.99 165.98 2.99 165.98 4 168 C-1.50710069 165.75636639 -5.51623616 161.32235108 -8 156 C-10.59453133 147.64885229 -10 139.89707763 -10 131 C-21.22 131 -32.44 131 -44 131 C-44.495 131.99 -44.495 131.99 -45 133 C-45 132.01 -45 131.02 -45 130 C-32.79 130 -20.58 130 -8 130 C-8 131.32 -8 132.64 -8 134 C-7.01 133.67 -6.02 133.34 -5 133 C-4.01 133.99 -3.02 134.98 -2 136 C-1.99576806 135.32947003 -1.99153612 134.65894007 -1.98717594 133.96809101 C-1.88386416 117.65142848 -1.77522559 101.33481099 -1.66066074 85.01822376 C-1.60538644 77.12764261 -1.55191401 69.23705693 -1.50268555 61.34643555 C-1.4597727 54.46884929 -1.41347689 47.59129554 -1.36312145 40.7137596 C-1.33657767 37.07228896 -1.31172615 33.43082453 -1.29092598 29.78931618 C-1.26764069 25.72383461 -1.23680269 21.65844394 -1.20532227 17.59301758 C-1.1995668 16.38604721 -1.19381134 15.17907684 -1.18788147 13.93553162 C-1.17319824 12.27184036 -1.17319824 12.27184036 -1.15821838 10.57453918 C-1.15176583 9.6131091 -1.14531328 8.65167902 -1.1386652 7.66111469 C-1.00089048 5.01708919 -0.58730379 2.57826658 0 0 Z " fill="#918F90" transform="translate(162,175)"/>
<path d="M0 0 C26.07 0 52.14 0 79 0 C79 0.99 79 1.98 79 3 C78.505 2.505 78.505 2.505 78 2 C75.59749468 1.87510302 73.22227215 1.8139921 70.81811523 1.79467773 C70.06694427 1.78477814 69.31577332 1.77487854 68.5418396 1.76467896 C66.04745688 1.73297454 63.55305509 1.70827141 61.05859375 1.68359375 C59.33365877 1.66303193 57.60872892 1.64203567 55.88380432 1.62062073 C51.33493186 1.56532029 46.78601333 1.51594631 42.23706055 1.46777344 C36.78382558 1.40880412 31.33067513 1.34253248 25.87751007 1.27747345 C17.58505816 1.17936368 9.29255305 1.09057634 1 1 C1 14.2 1 27.4 1 41 C9.29125 40.938125 9.29125 40.938125 17.75 40.875 C19.48862305 40.87741699 21.22724609 40.87983398 23.01855469 40.88232422 C24.40303666 40.8587915 25.78748376 40.8330603 27.171875 40.8046875 C27.88553223 40.8137915 28.59918945 40.82289551 29.33447266 40.83227539 C31.69353355 40.82930366 31.69353355 40.82930366 35 40 C37.4063673 37.18764439 37.4063673 37.18764439 39 34 C43.68622742 29.54808395 47.93833748 29.5584792 54.09765625 29.56640625 C60.34401221 30.49957652 63.36314403 34.25188248 67 39 C69.40018697 43.80037395 68.49622483 50.42375644 66.9375 55.375 C63.80045306 59.62519262 60.00305271 62.33231576 55 64 C48.49485054 64.55128385 44.5790242 63.32367399 39 60 C39 59.34 39 58.68 39 58 C42.46153846 55 42.46153846 55 45 55 C44.505 53.02 44.505 53.02 44 51 C44.69867188 51.0721875 45.39734375 51.144375 46.1171875 51.21875 C47.02726562 51.3115625 47.93734375 51.404375 48.875 51.5 C50.23238281 51.63921875 50.23238281 51.63921875 51.6171875 51.78125 C53.93313211 52.03047295 53.93313211 52.03047295 56 52 C56.68066494 49.00507424 57.17005683 46.69912251 56.4375 43.6875 C54.30877461 41.1885615 52.17186815 41.33040293 49 41 C48.01 40.505 48.01 40.505 47 40 C46.01 39.67 45.02 39.34 44 39 C43.67 38.01 43.34 37.02 43 36 C42.59398056 36.42632721 42.18796112 36.85265442 41.76963806 37.29190063 C37.83190215 41.08606767 35.18147222 42.68441091 29.68835449 42.67895508 C28.94686157 42.64825928 28.20536865 42.61756348 27.44140625 42.5859375 C26.7407605 42.57989502 26.04011475 42.57385254 25.3182373 42.56762695 C22.73238125 42.53653113 20.14737357 42.45276298 17.5625 42.375 C8.8690625 42.189375 8.8690625 42.189375 0 42 C0 28.14 0 14.28 0 0 Z " fill="#4C494A" transform="translate(347,254)"/>
<path d="M0 0 C0 0.66 0 1.32 0 2 C-0.66 2 -1.32 2 -2 2 C-1.505 2.78375 -1.01 3.5675 -0.5 4.375 C1 7 1 7 1 9 C1.56847656 8.79503906 2.13695312 8.59007812 2.72265625 8.37890625 C7.5084454 6.70907331 11.95943201 5.53623064 17 5 C17 4.01 17 3.02 17 2 C16.01 1.67 15.02 1.34 14 1 C14.66 0.67 15.32 0.34 16 0 C16.66 0.33 17.32 0.66 18 1 C18 1.66 18 2.32 18 3 C18.66 3 19.32 3 20 3 C23.14247981 8.27487682 25.2104105 12.80413637 24 19 C22.07330899 24.23496044 19.78846139 28.62657872 14.64453125 31.16015625 C9.40391237 32.82445914 3.79780594 33.06692109 -1.38671875 31.08984375 C-5.83372987 28.53342885 -8.53285244 26.04331973 -10 21 C-10.86501992 14.67732865 -11.01815754 9.59539104 -7.125 4.3125 C-3.42857143 0 -3.42857143 0 0 0 Z M0.9375 10.625 C-0.31856608 13.80703406 0.07929747 15.74212952 1 19 C2.93731528 21.36410488 2.93731528 21.36410488 6.4375 21.3125 C9.85653666 21.26665828 9.85653666 21.26665828 11.9375 19.875 C13.48724515 17.14015561 13.32162076 15.0875593 13 12 C12.34 11.01 11.68 10.02 11 9 C5.55251889 8.26574653 5.55251889 8.26574653 0.9375 10.625 Z " fill="#535051" transform="translate(294,383)"/>
<path d="M0 0 C8.42604271 0.58110639 13.36637599 3.53790187 19 10 C19 10.99 19 11.98 19 13 C18.34 13 17.68 13 17 13 C15.66666667 16 15.66666667 16 17 19 C16.34 19.33 15.68 19.66 15 20 C15 69.83 15 119.66 15 171 C14.67 171 14.34 171 14 171 C13.99761165 170.24277838 13.99522329 169.48555676 13.99276257 168.70538902 C13.9336159 150.27698764 13.85806794 131.84872023 13.76428509 113.42046165 C13.71932744 104.50867267 13.6799127 95.59692364 13.65356445 86.68505859 C13.63058412 78.91709959 13.59718571 71.14926704 13.55129844 63.38140833 C13.52736666 59.26871213 13.5086376 55.15614116 13.50238609 51.04337692 C13.496335 47.17079149 13.4763345 43.2985265 13.44572449 39.42605972 C13.43694462 38.00632706 13.43322159 36.58655253 13.43499184 35.16679382 C13.43664865 33.22455212 13.41815308 31.28232471 13.39872742 29.34017944 C13.39181397 27.71137124 13.39181397 27.71137124 13.38476086 26.04965782 C12.94007472 22.5250255 11.67855025 20.10513776 10 17 C10 16.34 10 15.68 10 15 C9.34 15 8.68 15 8 15 C8 14.34 8 13.68 8 13 C7.38125 12.855625 6.7625 12.71125 6.125 12.5625 C4 12 4 12 2 11 C0.02376726 10.89414201 -1.95605701 10.85334524 -3.93508911 10.84178162 C-5.83239777 10.82709839 -5.83239777 10.82709839 -7.76803589 10.81211853 C-9.17755089 10.80621395 -10.58706629 10.80040353 -11.99658203 10.79467773 C-13.47469356 10.78510184 -14.95280233 10.77509194 -16.4309082 10.76467896 C-20.45130512 10.73759246 -24.47171381 10.71660321 -28.49215174 10.69667697 C-32.69090592 10.67484047 -36.88962362 10.64744038 -41.08834839 10.62062073 C-49.0426881 10.57066219 -56.99704803 10.52573511 -64.95142734 10.48259836 C-74.00573904 10.43325297 -83.06001415 10.37832486 -92.11429048 10.32291877 C-110.74282636 10.20905021 -129.37139675 10.10222181 -148 10 C-148 9.67 -148 9.34 -148 9 C-144.30233449 8.14786476 -140.87747624 7.86946542 -137.0861969 7.85523987 C-135.30929977 7.84489212 -135.30929977 7.84489212 -133.49650574 7.83433533 C-132.20545425 7.83172195 -130.91440277 7.82910858 -129.58422852 7.82641602 C-128.20407911 7.82010627 -126.82393173 7.81334 -125.44378662 7.80615234 C-122.47656744 7.79151265 -119.50935596 7.77977579 -116.54211617 7.77020454 C-111.84794074 7.75472003 -107.15383205 7.7307716 -102.45970154 7.70530701 C-89.11306986 7.63418729 -75.76640053 7.57431468 -62.41967773 7.52319336 C-55.04468137 7.49487059 -47.66975202 7.459482 -40.29482597 7.41653961 C-35.63083078 7.38980705 -30.96691132 7.37187774 -26.30285466 7.36050236 C-23.3984487 7.35136049 -20.49413467 7.3339916 -17.58978271 7.31432343 C-15.60622179 7.30331729 -13.62261408 7.30209983 -11.63902283 7.30119324 C-10.45160492 7.29147491 -9.26418701 7.28175659 -8.04078674 7.27174377 C-6.49915029 7.26539587 -6.49915029 7.26539587 -4.92636967 7.25891972 C-1.70470817 6.97387313 0.98013472 6.13198536 4 5 C3.24849977 1.72226496 3.24849977 1.72226496 0 0 Z " fill="#A2A1A1" transform="translate(323,153)"/>
<path d="M0 0 C4.3938504 2.9292336 7.26804961 5.54835683 8.625 10.75 C9.49722947 17.48361153 8.66723859 21.80174243 4.71875 27.3515625 C4.3578125 27.81304687 3.996875 28.27453125 3.625 28.75 C2.965 28.42 2.305 28.09 1.625 27.75 C2.285 26.76 2.945 25.77 3.625 24.75 C1.15233235 25.09444881 1.15233235 25.09444881 -1.375 25.75 C-1.705 26.41 -2.035 27.07 -2.375 27.75 C-3.365 27.75 -4.355 27.75 -5.375 27.75 C-4.715 26.1 -4.055 24.45 -3.375 22.75 C-4.695 22.42 -6.015 22.09 -7.375 21.75 C-6.055 21.42 -4.735 21.09 -3.375 20.75 C-2.43713918 15.69990405 -2.43713918 15.69990405 -3.375 10.75 C-8.31184354 9.51706663 -8.31184354 9.51706663 -12.875 11.25 C-14.95473369 14.71622282 -14.26113305 16.9100901 -13.375 20.75 C-12.385 21.08 -11.395 21.41 -10.375 21.75 C-10.375 22.08 -10.375 22.41 -10.375 22.75 C-11.15875 22.729375 -11.9425 22.70875 -12.75 22.6875 C-15.35614961 22.56315937 -15.35614961 22.56315937 -17.375 23.75 C-19.5 22.8125 -19.5 22.8125 -21.375 21.75 C-20.385 24.06 -19.395 26.37 -18.375 28.75 C-21.27073124 27.75147198 -22.34765909 26.78905844 -24.125 24.25 C-26.1693448 18.52583455 -26.33506104 12.64615109 -24.25 6.875 C-19.10178162 -1.70536397 -8.89938471 -3.29606841 0 0 Z " fill="#555253" transform="translate(258.375,42.25)"/>
<path d="M0 0 C3.68471114 2.63193653 6.599722 5.50897384 8.4375 9.75 C9.09515256 17.2033957 8.46409385 21.43080676 4.625 27.875 C3.965 27.875 3.305 27.875 2.625 27.875 C2.625 28.535 2.625 29.195 2.625 29.875 C1.635 29.545 0.645 29.215 -0.375 28.875 C0.285 28.875 0.945 28.875 1.625 28.875 C1.150625 28.2975 0.67625 27.72 0.1875 27.125 C-1.3234867 24.94917916 -1.91536151 23.44897552 -2.375 20.875 C-3.365 20.875 -4.355 20.875 -5.375 20.875 C-4.715 19.885 -4.055 18.895 -3.375 17.875 C-3.69230524 14.23560068 -3.69230524 14.23560068 -4.375 10.875 C-7.06473228 10.12785215 -8.89278598 9.7544465 -11.625 10.4375 C-14.20039199 12.55300057 -14.03979498 14.65703182 -14.375 17.875 C-14.705 18.535 -15.035 19.195 -15.375 19.875 C-16.035 18.885 -16.695 17.895 -17.375 16.875 C-17.705 18.525 -18.035 20.175 -18.375 21.875 C-17.715 21.875 -17.055 21.875 -16.375 21.875 C-16.375 22.535 -16.375 23.195 -16.375 23.875 C-17.035 23.875 -17.695 23.875 -18.375 23.875 C-18.045 25.855 -17.715 27.835 -17.375 29.875 C-20.66247977 28.70090008 -22.76503001 26.88891979 -24.609375 23.91015625 C-26.52426582 18.82006383 -26.26996793 12.84586986 -24.71484375 7.68359375 C-22.86885177 3.98361847 -20.19391799 1.378209 -16.5 -0.46875 C-10.98982001 -2.17042323 -5.41286959 -1.80428986 0 0 Z " fill="#4A4748" transform="translate(309.375,86.125)"/>
<path d="M0 0 C7.02268915 0.15222592 11.09388584 3.09935799 15.875 8 C18.11737547 13.13877713 18.13317311 17.91799974 17.375 23.4375 C15.625 26.9375 15.625 26.9375 13.375 29.4375 C12.715 30.200625 12.055 30.96375 11.375 31.75 C7.67424263 34.87251403 3.36336998 34.71028089 -1.3046875 34.6640625 C-5.76637645 34.22840937 -9.42716373 32.63533627 -12.625 29.4375 C-11.635 29.1075 -10.645 28.7775 -9.625 28.4375 C-9.625 27.1175 -9.625 25.7975 -9.625 24.4375 C-8.93963722 21.01068608 -7.75126935 17.74122342 -6.625 14.4375 C-6.295 14.4375 -5.965 14.4375 -5.625 14.4375 C-5.625 16.7475 -5.625 19.0575 -5.625 21.4375 C-4.965 21.4375 -4.305 21.4375 -3.625 21.4375 C-3.625 22.0975 -3.625 22.7575 -3.625 23.4375 C1.1647321 23.67178313 1.1647321 23.67178313 5.375 21.4375 C5.73797936 19.46002878 5.73797936 19.46002878 5.5625 17.3125 C5.500625 16.03375 5.43875 14.755 5.375 13.4375 C2.735 12.7775 0.095 12.1175 -2.625 11.4375 C-0.67283565 9.48533565 0.90699953 8.58923355 3.375 7.4375 C3.045 6.7775 2.715 6.1175 2.375 5.4375 C3.035 4.7775 3.695 4.1175 4.375 3.4375 C5.035 3.7675 5.695 4.0975 6.375 4.4375 C6.375 3.7775 6.375 3.1175 6.375 2.4375 C2.085 2.4375 -2.205 2.4375 -6.625 2.4375 C-4.18592256 -0.00157744 -3.36631058 0.08858712 0 0 Z " fill="#524F50" transform="translate(397.625,181.5625)"/>
<path d="M0 0 C10.86873508 -0.57995227 10.86873508 -0.57995227 16 3 C20.2385253 7.21548984 22.13953707 10.81988605 22.25 16.8125 C22.18447506 22.43945422 20.73889435 25.91332678 17.125 30.25 C12.61763715 33.96194588 8.28956231 34.47935691 2.58203125 34.40234375 C-1.63541188 33.74516275 -4.68754197 31.5907493 -8 29 C-7.67 28.34 -7.34 27.68 -7 27 C-6.34 27.33 -5.68 27.66 -5 28 C-5 27.34 -5 26.68 -5 26 C-3.68 25.67 -2.36 25.34 -1 25 C-1.66 24.67 -2.32 24.34 -3 24 C-2.67 22.02 -2.34 20.04 -2 18 C-1.79375 18.639375 -1.5875 19.27875 -1.375 19.9375 C-0.1213606 22.30195096 -0.1213606 22.30195096 2.875 22.8125 C5.61800014 22.97708001 7.43512912 22.88783992 10 22 C10.68693763 18.97747444 11.19215562 16.71097581 10.375 13.6875 C9.07899774 11.79310753 9.07899774 11.79310753 6.625 11.1875 C4.10421049 11.00744361 2.3796376 11.20678747 0 12 C1.1875 10.5 1.1875 10.5 3 9 C5.6875 8.8125 5.6875 8.8125 8 9 C7.34 6.69 6.68 4.38 6 2 C3.03 1.505 3.03 1.505 0 1 C0 0.67 0 0.34 0 0 Z " fill="#524F50" transform="translate(437,233)"/>
<path d="M0 0 C0 0.33 0 0.66 0 1 C-3.63 1.33 -7.26 1.66 -11 2 C-10.73606499 5.43230448 -10.73606499 5.43230448 -10 9 C-9.01 9.66 -8.02 10.32 -7 11 C-7.680625 11.515625 -8.36125 12.03125 -9.0625 12.5625 C-11.42428622 14.97254504 -11.42428622 14.97254504 -10.75 18.75 C-10.5025 19.8225 -10.255 20.895 -10 22 C-7.29409604 22.95367452 -7.29409604 22.95367452 -4 23 C-1.6413502 21.57631048 0.00702837 19.94551992 2 18 C2 19.32 2 20.64 2 22 C1.34 22.66 0.68 23.32 0 24 C0.350625 24.598125 0.70125 25.19625 1.0625 25.8125 C2 28 2 28 1 31 C1.99 31.33 2.98 31.66 4 32 C-0.58339241 34.65076381 -4.82944659 34.51623592 -10 34 C-15.28097404 32.20646165 -17.79895251 29.39000798 -21 25 C-22.81493882 19.55518355 -22.74020057 13.99854153 -20.75 8.625 C-15.16031512 0.24047268 -9.52730687 -0.33299325 0 0 Z " fill="#565354" transform="translate(63,233)"/>
<path d="M0 0 C0.99 0 1.98 0 3 0 C3 0.66 3 1.32 3 2 C3.598125 2.20625 4.19625 2.4125 4.8125 2.625 C8.01568719 4.63843195 8.72796751 6.43830904 10 10 C10.77063878 16.3213208 10.29029935 21.51616775 7 27 C0.85883545 31.86175527 -4.38397329 32.66536271 -12 32 C-16.26597716 30.42000846 -18.9751133 28.37391208 -22 25 C-21.505 23.515 -21.505 23.515 -21 22 C-19.35 22 -17.7 22 -16 22 C-15.43381222 19.24994505 -14.93734576 16.53456853 -14.5625 13.75 C-14.376875 12.8425 -14.19125 11.935 -14 11 C-13.34 10.67 -12.68 10.34 -12 10 C-12.20625 10.9075 -12.4125 11.815 -12.625 12.75 C-13.0135465 16.11740302 -13.05661788 17.35577701 -11 20 C-7.82453305 21.42348518 -5.30021001 20.8250525 -2 20 C-1.25073929 16.33694766 -0.7619986 13.57644848 -2 10 C-1.34 10.33 -0.68 10.66 0 11 C0 11.66 0 12.32 0 13 C1.32 13.33 2.64 13.66 4 14 C4.33 11.36 4.66 8.72 5 6 C4.01 5.67 3.02 5.34 2 5 C0.8125 2.4375 0.8125 2.4375 0 0 Z " fill="#535051" transform="translate(257,427)"/>
<path d="M0 0 C0.99 0.33 1.98 0.66 3 1 C0.525 2.485 0.525 2.485 -2 4 C-0.68 4.99 0.64 5.98 2 7 C-1 9 -1 9 -3 10 C-2.67 10.66 -2.34 11.32 -2 12 C-1.401875 11.835 -0.80375 11.67 -0.1875 11.5 C2 11 2 11 5 11 C4.62875 11.9075 4.2575 12.815 3.875 13.75 C2.69640701 16.88097015 2.69640701 16.88097015 3.875 19.375 C4.24625 19.91125 4.6175 20.4475 5 21 C8.94727588 21.17942163 11.5980513 21.09350689 15 19 C15.12375 19.804375 15.2475 20.60875 15.375 21.4375 C15.58125 22.283125 15.7875 23.12875 16 24 C18.6666419 25.33332095 20.16680303 24.67102033 23 24 C23 24.99 23 25.98 23 27 C22.34 27 21.68 27 21 27 C21 27.66 21 28.32 21 29 C15.68531317 32.69075474 11.43934905 33.43656604 5 33 C-0.86628117 31.17942998 -3.54960461 28.87114644 -7 24 C-8.7019824 18.89405279 -9.03016629 12.96773293 -7.24609375 7.828125 C-5.4330166 4.50059518 -3.3930834 1.75126885 0 0 Z " fill="#524F50" transform="translate(93,285)"/>
<path d="M0 0 C0.66 0.33 1.32 0.66 2 1 C1.67 1.66 1.34 2.32 1 3 C1.66 3.33 2.32 3.66 3 4 C2.67 4.66 2.34 5.32 2 6 C2.66 6 3.32 6 4 6 C4.12375 7.03125 4.2475 8.0625 4.375 9.125 C4.93889814 12.62116846 5.78682059 15.68397627 7 19 C9.80764728 19.77426109 9.80764728 19.77426109 13 20 C15.36290685 18.68864588 15.36290685 18.68864588 17 17 C17 18.32 17 19.64 17 21 C17.2981424 22.34164079 17.62243192 23.67851173 18 25 C19.65 25.33 21.3 25.66 23 26 C19.73409962 29.61581828 17.68481524 30.69215464 12.921875 31.23828125 C7.1256927 31.43635223 2.69014953 30.54672707 -2 27 C-6.25833836 21.88999397 -6.61222528 17.38626927 -6.3984375 10.81640625 C-5.70150251 5.89003244 -3.47314532 3.47314532 0 0 Z " fill="#4D4A4B" transform="translate(91,185)"/>
<path d="M0 0 C26.07 0 52.14 0 79 0 C79 0.99 79 1.98 79 3 C78.505 2.505 78.505 2.505 78 2 C75.59749468 1.87510302 73.22227215 1.8139921 70.81811523 1.79467773 C70.06694427 1.78477814 69.31577332 1.77487854 68.5418396 1.76467896 C66.04745688 1.73297454 63.55305509 1.70827141 61.05859375 1.68359375 C59.33365877 1.66303193 57.60872892 1.64203567 55.88380432 1.62062073 C51.33493186 1.56532029 46.78601333 1.51594631 42.23706055 1.46777344 C36.78382558 1.40880412 31.33067513 1.34253248 25.87751007 1.27747345 C17.58505816 1.17936368 9.29255305 1.09057634 1 1 C1 14.2 1 27.4 1 41 C9.29125 40.938125 9.29125 40.938125 17.75 40.875 C19.48862305 40.87741699 21.22724609 40.87983398 23.01855469 40.88232422 C24.40303666 40.8587915 25.78748376 40.8330603 27.171875 40.8046875 C27.88553223 40.8137915 28.59918945 40.82289551 29.33447266 40.83227539 C31.69353355 40.82930366 31.69353355 40.82930366 35 40 C37.4063673 37.18764439 37.4063673 37.18764439 39 34 C43.68622742 29.54808395 47.93833748 29.5584792 54.09765625 29.56640625 C57.41606867 30.06215831 59.33436898 30.98058256 62 33 C63 36 63 36 62 39 C61.01 39.495 61.01 39.495 60 40 C59.34 40.99 58.68 41.98 58 43 C57.29875 42.67 56.5975 42.34 55.875 42 C52.73996884 40.90955438 50.29436818 40.84677357 47 41 C47 40.34 47 39.68 47 39 C46.01 39 45.02 39 44 39 C43.67 38.01 43.34 37.02 43 36 C42.59398056 36.42632721 42.18796112 36.85265442 41.76963806 37.29190063 C37.83190215 41.08606767 35.18147222 42.68441091 29.68835449 42.67895508 C28.94686157 42.64825928 28.20536865 42.61756348 27.44140625 42.5859375 C26.7407605 42.57989502 26.04011475 42.57385254 25.3182373 42.56762695 C22.73238125 42.53653113 20.14737357 42.45276298 17.5625 42.375 C8.8690625 42.189375 8.8690625 42.189375 0 42 C0 28.14 0 14.28 0 0 Z " fill="#939090" transform="translate(347,254)"/>
<path d="M0 0 C0.66 0 1.32 0 2 0 C2 0.66 2 1.32 2 2 C3.18750351 1.67278961 4.37500702 1.34557922 5.59849548 1.00845337 C12.17148805 -0.44019177 18.72945502 -0.21926728 25.42407227 -0.13525391 C26.86379898 -0.12481027 28.30353254 -0.11527834 29.74327087 -0.10658264 C33.62702931 -0.08056989 37.51056816 -0.04190052 41.39419293 -0.00085878 C45.46203251 0.03994414 49.52995624 0.06896884 53.59788513 0.09927368 C61.29001939 0.15835174 68.98202087 0.22793406 76.67403024 0.30134451 C85.43579723 0.38444892 94.19764799 0.45576079 102.95952523 0.52611041 C120.97314074 0.67100552 138.98659893 0.83061788 157 1 C157 1.33 157 1.66 157 2 C86.71 2.495 86.71 2.495 15 3 C15.33 3.99 15.66 4.98 16 6 C15.67 6.99 15.34 7.98 15 9 C20.28 9 25.56 9 31 9 C31 9.33 31 9.66 31 10 C27.47932649 10.08782542 23.95893856 10.14066643 20.4375 10.1875 C18.9515332 10.22520508 18.9515332 10.22520508 17.43554688 10.26367188 C11.502544 10.32280479 7.17878841 10.00703843 2 7 C0.0625 3.8125 0.0625 3.8125 -1 1 C-0.67 0.67 -0.34 0.34 0 0 Z " fill="#484647" transform="translate(164,337)"/>
<path d="M0 0 C0 0.66 0 1.32 0 2 C-0.66 2 -1.32 2 -2 2 C-1.505 2.78375 -1.01 3.5675 -0.5 4.375 C1 7 1 7 1 9 C1.66 9.33 2.32 9.66 3 10 C2.01 11.485 2.01 11.485 1 13 C1.18232592 16.82748905 1.18232592 16.82748905 3 20 C4.51928038 20.07179964 6.04167482 20.08392007 7.5625 20.0625 C8.38878906 20.05347656 9.21507812 20.04445313 10.06640625 20.03515625 C10.70449219 20.02355469 11.34257812 20.01195312 12 20 C10.85546875 21.51953125 10.85546875 21.51953125 9 23 C6.30078125 23.07421875 6.30078125 23.07421875 3.3125 22.6875 C2.31863281 22.56761719 1.32476562 22.44773437 0.30078125 22.32421875 C-0.45847656 22.21722656 -1.21773438 22.11023438 -2 22 C-2 24.83967231 -1.59732819 27.23735711 -1 30 C-5.99812341 27.50093829 -7.94025213 26.52386928 -10 21 C-10.91020837 14.6992372 -11.00114589 9.57230677 -7.125 4.3125 C-3.42857143 0 -3.42857143 0 0 0 Z " fill="#585657" transform="translate(294,383)"/>
<path d="M0 0 C1.98 0.99 3.96 1.98 6 3 C6 3.66 6 4.32 6 5 C6.66 5 7.32 5 8 5 C9.86987711 8.73975422 9.55619345 12.92913733 9 17 C7.65318205 19.93851189 5.98822301 22.45791486 4 25 C3.34 24.67 2.68 24.34 2 24 C2.66 23.01 3.32 22.02 4 21 C1.52733235 21.34444881 1.52733235 21.34444881 -1 22 C-1.33 22.66 -1.66 23.32 -2 24 C-2.99 24 -3.98 24 -5 24 C-4.34 22.35 -3.68 20.7 -3 19 C-4.32 18.67 -5.64 18.34 -7 18 C-5.68 17.67 -4.36 17.34 -3 17 C-1.9609283 9.97217958 -1.9609283 9.97217958 -3 3 C-2.34 3 -1.68 3 -1 3 C-0.67 2.01 -0.34 1.02 0 0 Z " fill="#514E4F" transform="translate(258,46)"/>
<path d="M0 0 C0.66 0.33 1.32 0.66 2 1 C1.01 2.485 1.01 2.485 0 4 C0.66 4.33 1.32 4.66 2 5 C2.33 5.99 2.66 6.98 3 8 C3.66 8.66 4.32 9.32 5 10 C4.360625 10.20625 3.72125 10.4125 3.0625 10.625 C0.70710705 11.86126124 0.70710705 11.86126124 0.3125 14.75 C0.1578125 16.35875 0.1578125 16.35875 0 18 C-0.33333333 20 -0.66666667 22 -1 24 C-6.49320732 24.36621382 -6.49320732 24.36621382 -8.67578125 22.7890625 C-11.22671725 19.3426652 -10.47035221 15.08697932 -10 11 C-8.72796751 7.43830904 -8.01568719 5.63843195 -4.8125 3.625 C-4.214375 3.41875 -3.61625 3.2125 -3 3 C-3 2.34 -3 1.68 -3 1 C-2.01 0.67 -1.02 0.34 0 0 Z " fill="#434041" transform="translate(243,426)"/>
<path d="M0 0 C0.928125 0.20625 1.85625 0.4125 2.8125 0.625 C2.1525 1.945 1.4925 3.265 0.8125 4.625 C1.8025 4.295 2.7925 3.965 3.8125 3.625 C3.125 6.5 3.125 6.5 1.8125 9.625 C-3.28238774 12.29714392 -8.56987345 12.32612134 -14.1875 11.625 C-17.34112593 9.59766904 -17.9610611 8.45527598 -18.9375 4.875 C-19.02 4.1325 -19.1025 3.39 -19.1875 2.625 C-16.028598 0.72534139 -14.23101147 0.49043961 -10.625 1.125 C-6.1117171 1.91653697 -4.3571529 -0.51260622 0 0 Z " fill="#3C393A" transform="translate(309.1875,403.375)"/>
<path d="M0 0 C11.88 0 23.76 0 36 0 C35.67 0.66 35.34 1.32 35 2 C23.78 1.67 12.56 1.34 1 1 C1 14.2 1 27.4 1 41 C26.41 40.67 51.82 40.34 78 40 C78.66 38.68 79.32 37.36 80 36 C80.66 36 81.32 36 82 36 C82.268125 35.38125 82.53625 34.7625 82.8125 34.125 C84 32 84 32 87 30 C88.485 30.495 88.485 30.495 90 31 C89.21625 31.4125 88.4325 31.825 87.625 32.25 C84.81561299 34.12292467 84.34691531 35.03678631 83 38 C81.42303467 40.1005249 81.42303467 40.1005249 79 42 C76.29171794 42.37433085 73.99664359 42.50776209 71.29394531 42.45410156 C70.13727104 42.45497772 70.13727104 42.45497772 68.95722961 42.45587158 C66.41373347 42.45308947 63.87141586 42.42199291 61.328125 42.390625 C59.56264893 42.38316303 57.79716457 42.37746989 56.03167725 42.37347412 C51.38886579 42.35821428 46.74655626 42.3189296 42.10394287 42.2746582 C36.53148267 42.22651188 30.95885447 42.20817313 25.38624573 42.18484497 C16.92381492 42.1460786 8.46248503 42.06942786 0 42 C0 28.14 0 14.28 0 0 Z " fill="#D4D3D4" transform="translate(347,204)"/>
<path d="M0 0 C0.99 0.66 1.98 1.32 3 2 C1.35 2.66 -0.3 3.32 -2 4 C-2 29.74 -2 55.48 -2 82 C11.2 82 24.4 82 38 82 C37.505 64.675 37.505 64.675 37 47 C37.66 47 38.32 47 39 47 C39 58.88 39 70.76 39 83 C25.14 83 11.28 83 -3 83 C-3 56.6 -3 30.2 -3 3 C-2.34 3 -1.68 3 -1 3 C-0.67 2.01 -0.34 1.02 0 0 Z " fill="#D7D7D7" transform="translate(257,70)"/>
<path d="M0 0 C0.886875 0.37125 1.77375 0.7425 2.6875 1.125 C6.40826005 2.10784228 7.67438135 1.76062164 11 0 C10.43330625 6.0447333 7.34972803 10.98116059 2.80859375 14.8828125 C-3.18004175 19.12517373 -3.18004175 19.12517373 -6.27734375 18.65234375 C-6.84582031 18.43707031 -7.41429687 18.22179687 -8 18 C-7.01 17.67 -6.02 17.34 -5 17 C-4.67 16.34 -4.34 15.68 -4 15 C-4.66 14.67 -5.32 14.34 -6 14 C-5.01 12.02 -4.02 10.04 -3 8 C-4.65 8.33 -6.3 8.66 -8 9 C-6.8553125 7.88625 -6.8553125 7.88625 -5.6875 6.75 C-3.5606298 4.5736677 -1.7440044 2.47832204 0 0 Z " fill="#494647" transform="translate(335,327)"/>
<path d="M0 0 C2.45332965 1.0882839 3.94646934 2.22397349 6 4 C5.01 4.495 5.01 4.495 4 5 C3.67 5.66 3.34 6.32 3 7 C2.34 7 1.68 7 1 7 C0.01 7.66 -0.98 8.32 -2 9 C-2.33 8.34 -2.66 7.68 -3 7 C-4.29409289 7.61996078 -5.58519673 8.24616353 -6.875 8.875 C-7.95394531 9.39707031 -7.95394531 9.39707031 -9.0546875 9.9296875 C-11.15135019 10.96557543 -11.15135019 10.96557543 -13 13 C-14.32 13 -15.64 13 -17 13 C-16.67 11.35 -16.34 9.7 -16 8 C-15.01 7.67 -14.02 7.34 -13 7 C-14.32 6.01 -15.64 5.02 -17 4 C-11.74688088 -0.54323816 -6.81918516 -1.05065964 0 0 Z " fill="#252223" transform="translate(107,285)"/>
<path d="M0 0 C0.99 0.33 1.98 0.66 3 1 C0.525 2.485 0.525 2.485 -2 4 C-0.68 4.99 0.64 5.98 2 7 C-1 9 -1 9 -3 10 C-2.67 10.66 -2.34 11.32 -2 12 C-1.401875 11.835 -0.80375 11.67 -0.1875 11.5 C2 11 2 11 5 11 C4.67 11.9075 4.34 12.815 4 13.75 C2.80394277 17.07045807 2.80394277 17.07045807 3 21 C1.54263913 21.19491452 0.08405407 21.38069358 -1.375 21.5625 C-2.18710938 21.66691406 -2.99921875 21.77132813 -3.8359375 21.87890625 C-6 22 -6 22 -8 21 C-8.47205799 13.74866471 -8.43546933 8.91395911 -4 3 C-1.9375 1 -1.9375 1 0 0 Z " fill="#575556" transform="translate(93,285)"/>
<path d="M0 0 C10.86873508 -0.57995227 10.86873508 -0.57995227 16 3 C18.02133594 4.91660351 19.39707318 6.66847007 21 9 C20.67 9.99 20.34 10.98 20 12 C19.34 11.67 18.68 11.34 18 11 C17.01 12.485 17.01 12.485 16 14 C15.01 13.67 14.02 13.34 13 13 C13.061875 13.928125 13.12375 14.85625 13.1875 15.8125 C13 19 13 19 11.5 20.875 C11.005 21.24625 10.51 21.6175 10 22 C10.20625 21.0925 10.4125 20.185 10.625 19.25 C11.18802651 16.12976083 11.18802651 16.12976083 10.375 13.6875 C9.07899774 11.79310753 9.07899774 11.79310753 6.625 11.1875 C4.10421049 11.00744361 2.3796376 11.20678747 0 12 C1.1875 10.5 1.1875 10.5 3 9 C5.6875 8.8125 5.6875 8.8125 8 9 C7.34 6.69 6.68 4.38 6 2 C3.03 1.505 3.03 1.505 0 1 C0 0.67 0 0.34 0 0 Z " fill="#656263" transform="translate(437,233)"/>
<path d="M0 0 C0.33 2.64 0.66 5.28 1 8 C2.32 8 3.64 8 5 8 C5 10.64 5 13.28 5 16 C3 15 3 15 2 13 C1.67 14.65 1.34 16.3 1 18 C1.66 18 2.32 18 3 18 C3 18.66 3 19.32 3 20 C2.34 20 1.68 20 1 20 C1.33 21.98 1.66 23.96 2 26 C-1.28663556 24.82620159 -3.37919897 23.01005361 -5.2421875 20.046875 C-7.07162966 15.10549513 -7.0006725 8.68404679 -5.1640625 3.7578125 C-3.90885627 1.86236684 -2.52370674 0 0 0 Z " fill="#3E3B3D" transform="translate(290,90)"/>
<path d="M0 0 C2 2 2 2 2.125 5.125 C2.08375 6.07375 2.0425 7.0225 2 8 C0.906875 8.185625 -0.18625 8.37125 -1.3125 8.5625 C-4.9490498 9.57516528 -4.9490498 9.57516528 -6.1328125 11.69140625 C-7.05926212 13.83650143 -7.05926212 13.83650143 -8 17 C-8.99 16.34 -9.98 15.68 -11 15 C-11.66 15 -12.32 15 -13 15 C-14.02906579 10.71222589 -14.3484635 8.68402095 -12.3125 4.6875 C-8.5107064 0.26919933 -5.82689176 -0.50668624 0 0 Z " fill="#231F20" transform="translate(443,234)"/>
<path d="M0 0 C0.98033203 -0.01224609 1.96066406 -0.02449219 2.97070312 -0.03710938 C3.90720703 -0.03904297 4.84371094 -0.04097656 5.80859375 -0.04296875 C6.67154053 -0.04707764 7.5344873 -0.05118652 8.42358398 -0.05541992 C10.5625 0.1875 10.5625 0.1875 12.5625 2.1875 C9.92393932 5.08991675 7.44072276 6.98504901 3.45605469 7.41455078 C2.35632324 7.39884033 2.35632324 7.39884033 1.234375 7.3828125 C0.03554688 7.37314453 0.03554688 7.37314453 -1.1875 7.36328125 C-2.0125 7.34652344 -2.8375 7.32976562 -3.6875 7.3125 C-4.52796875 7.30347656 -5.3684375 7.29445312 -6.234375 7.28515625 C-8.30220604 7.26165817 -10.36988995 7.22578908 -12.4375 7.1875 C-11.12723998 -1.60996015 -8.15311877 0.00533931 0 0 Z " fill="#221E1F" transform="translate(315.4375,153.8125)"/>
<path d="M0 0 C0.625 1.875 0.625 1.875 1 4 C0.34 4.66 -0.32 5.32 -1 6 C-0.649375 6.598125 -0.29875 7.19625 0.0625 7.8125 C1 10 1 10 0 13 C0.99 13.33 1.98 13.66 3 14 C-0.16349591 15.86131271 -2.47236155 16.24746869 -6.125 16.1875 C-6.99382813 16.18105469 -7.86265625 16.17460937 -8.7578125 16.16796875 C-11 16 -11 16 -13 15 C-13 14.34 -13 13.68 -13 13 C-13.66 13 -14.32 13 -15 13 C-14.1875 11.0625 -14.1875 11.0625 -13 9 C-12.01 8.67 -11.02 8.34 -10 8 C-10.33 7.34 -10.66 6.68 -11 6 C-9.741875 5.7525 -8.48375 5.505 -7.1875 5.25 C-4.16442273 4.51162006 -3.1940517 4.20617994 -1 1.875 C-0.67 1.25625 -0.34 0.6375 0 0 Z " fill="#4C4849" transform="translate(64,251)"/>
<path d="M0 0 C0.33 0 0.66 0 1 0 C1 2.31 1 4.62 1 7 C1.66 7 2.32 7 3 7 C3 7.66 3 8.32 3 9 C5.64 9 8.28 9 11 9 C11.3125 11.3125 11.3125 11.3125 11 14 C8.5625 15.75 8.5625 15.75 6 17 C5.67 17.33 5.34 17.66 5 18 C7.31 18.33 9.62 18.66 12 19 C12 19.33 12 19.66 12 20 C5.81348769 20.37876606 1.50867077 19.92296816 -4 17 C-4.66 16.34 -5.32 15.68 -6 15 C-5.01 14.67 -4.02 14.34 -3 14 C-3 12.68 -3 11.36 -3 10 C-2.31463722 6.57318608 -1.12626935 3.30372342 0 0 Z " fill="#565354" transform="translate(391,196)"/>
<path d="M0 0 C0.66 0 1.32 0 2 0 C2 0.66 2 1.32 2 2 C2.61488281 1.84402344 3.22976562 1.68804687 3.86328125 1.52734375 C4.67152344 1.33269531 5.47976562 1.13804687 6.3125 0.9375 C7.11300781 0.74027344 7.91351563 0.54304688 8.73828125 0.33984375 C11 0 11 0 14 1 C15.25 3.375 15.25 3.375 16 6 C15.67 6.99 15.34 7.98 15 9 C20.28 9 25.56 9 31 9 C31 9.33 31 9.66 31 10 C27.47932649 10.08782542 23.95893856 10.14066643 20.4375 10.1875 C18.9515332 10.22520508 18.9515332 10.22520508 17.43554688 10.26367188 C11.502544 10.32280479 7.17878841 10.00703843 2 7 C0.0625 3.8125 0.0625 3.8125 -1 1 C-0.67 0.67 -0.34 0.34 0 0 Z " fill="#3A3738" transform="translate(164,337)"/>
<path d="M0 0 C2.475 0.99 2.475 0.99 5 2 C5.08121924 3.60332791 5.13929134 5.20784026 5.1875 6.8125 C5.22230469 7.70582031 5.25710938 8.59914062 5.29296875 9.51953125 C5 12 5 12 3.6484375 13.83984375 C2 15 2 15 -0.5625 14.75 C-3 14 -3 14 -5 13 C-4.67 9.7 -4.34 6.4 -4 3 C-3.01 2.67 -2.02 2.34 -1 2 C-0.67 1.34 -0.34 0.68 0 0 Z " fill="#373435" transform="translate(454,243)"/>
<path d="M0 0 C7.51560282 -0.44427209 12.8750049 -0.66032236 19 4 C19.99 5.485 19.99 5.485 21 7 C20.67 7.99 20.34 8.98 20 10 C20 9.34 20 8.68 20 8 C19.01 8.66 18.02 9.32 17 10 C17 10.99 17 11.98 17 13 C16.01 13.495 16.01 13.495 15 14 C15 15.65 15 17.3 15 19 C14.01 19.33 13.02 19.66 12 20 C11.34 17.36 10.68 14.72 10 12 C9.05125 11.855625 8.1025 11.71125 7.125 11.5625 C4 11 4 11 2 10 C2.804375 9.87625 3.60875 9.7525 4.4375 9.625 C5.283125 9.41875 6.12875 9.2125 7 9 C7.33 8.34 7.66 7.68 8 7 C8.66 7.66 9.32 8.32 10 9 C10.45375 8.505 10.9075 8.01 11.375 7.5 C13 6 13 6 15 6 C15 5.34 15 4.68 15 4 C11.73386305 2.08697693 9.00554752 1.64325339 5.25 1.375 C3.77273437 1.26285156 3.77273437 1.26285156 2.265625 1.1484375 C1.51796875 1.09945313 0.7703125 1.05046875 0 1 C0 0.67 0 0.34 0 0 Z " fill="#7D7A7B" transform="translate(96,284)"/>
<path d="M0 0 C2.875 1.0625 2.875 1.0625 6 3 C7.375 6.6875 7.375 6.6875 8 10 C4.67465243 11.10844919 2.37817425 10.84454356 -1 10 C-1.66 7.69 -2.32 5.38 -3 3 C-2.34 3 -1.68 3 -1 3 C-0.67 2.01 -0.34 1.02 0 0 Z " fill="#232021" transform="translate(258,46)"/>
<path d="M0 0 C1.2077558 3.62326739 0.54311128 4.64146369 -1 8 C-2.9375 7.625 -2.9375 7.625 -5 7 C-5.33 6.34 -5.66 5.68 -6 5 C-7.88263881 4.09656316 -7.88263881 4.09656316 -10.0625 3.375 C-10.79597656 3.11460937 -11.52945313 2.85421875 -12.28515625 2.5859375 C-12.85105469 2.39257812 -13.41695312 2.19921875 -14 2 C-9.24372025 -1.93623152 -5.93106434 -0.89525499 0 0 Z " fill="#332F30" transform="translate(262,433)"/>
<path d="M0 0 C0.66 0.33 1.32 0.66 2 1 C1.67 2.32 1.34 3.64 1 5 C1.66 5.33 2.32 5.66 3 6 C2.34 7.98 1.68 9.96 1 12 C0.01 11.34 -0.98 10.68 -2 10 C-2.66 10 -3.32 10 -4 10 C-4.33 7.69 -4.66 5.38 -5 3 C-2.625 1.4375 -2.625 1.4375 0 0 Z " fill="#343031" transform="translate(434,239)"/>
<path d="M0 0 C0.33 0 0.66 0 1 0 C1 3.63 1 7.26 1 11 C3.64 11.33 6.28 11.66 9 12 C9 12.66 9 13.32 9 14 C8.34 14 7.68 14 7 14 C7.33 15.98 7.66 17.96 8 20 C4.71525604 18.82687716 2.63422819 17.00660655 0.75 14.0625 C-0.87202402 9.60193394 -0.27208393 4.67077409 0 0 Z " fill="#817E7F" transform="translate(284,96)"/>
<path d="M0 0 C11.88 0 23.76 0 36 0 C36 0.33 36 0.66 36 1 C24.45 1 12.9 1 1 1 C0.34 2.98 -0.32 4.96 -1 7 C-1.66 6.67 -2.32 6.34 -3 6 C-3 4.68 -3 3.36 -3 2 C-2.01 2 -1.02 2 0 2 C0 1.34 0 0.68 0 0 Z " fill="#7D7B7C" transform="translate(117,203)"/>
<path d="M0 0 C-2.38957269 3.24299151 -4.2047869 5.50902342 -8 7 C-8 7.66 -8 8.32 -8 9 C-8.66 8.67 -9.32 8.34 -10 8 C-10.3125 5.6875 -10.3125 5.6875 -10 3 C-6.71110421 0.27491491 -4.21712557 -0.36146791 0 0 Z " fill="#242122" transform="translate(199,86)"/>
<path d="M0 0 C1.32 0.66 2.64 1.32 4 2 C3.01 3.485 3.01 3.485 2 5 C2.99 4.67 3.98 4.34 5 4 C4.67 5.32 4.34 6.64 4 8 C2.02 8.33 0.04 8.66 -2 9 C-2.25 3.375 -2.25 3.375 0 0 Z " fill="#242122" transform="translate(308,403)"/>
<path d="M0 0 C0.99 0.33 1.98 0.66 3 1 C2.01 1 1.02 1 0 1 C0 0.67 0 0.34 0 0 Z M-1 2 C-0.01 2.33 0.98 2.66 2 3 C2 3.66 2 4.32 2 5 C2.66 5 3.32 5 4 5 C4 4.01 4 3.02 4 2 C4.99 2.33 5.98 2.66 7 3 C4.74259377 5.33524782 2.7194239 7.18705073 0 9 C-2.1875 8.625 -2.1875 8.625 -4 8 C-3.01 7.67 -2.02 7.34 -1 7 C-0.67 6.34 -0.34 5.68 0 5 C-0.66 4.67 -1.32 4.34 -2 4 C-1.67 3.34 -1.34 2.68 -1 2 Z " fill="#6C6B6B" transform="translate(331,337)"/>
<path d="M0 0 C0.66 0 1.32 0 2 0 C1.46884894 4.51478398 -0.36620292 7.34666857 -3 11 C-3.625 9.1875 -3.625 9.1875 -4 7 C-3.34 6.01 -2.68 5.02 -2 4 C-1.67 3.01 -1.34 2.02 -1 1 C-0.67 0.67 -0.34 0.34 0 0 Z " fill="#787777" transform="translate(344,327)"/>
<path d="M0 0 C0.556875 0.226875 1.11375 0.45375 1.6875 0.6875 C0.6975 1.0175 -0.2925 1.3475 -1.3125 1.6875 C-1.3125 2.3475 -1.3125 3.0075 -1.3125 3.6875 C-3.2925 4.3475 -5.2725 5.0075 -7.3125 5.6875 C-7.3125 4.6975 -7.3125 3.7075 -7.3125 2.6875 C-3.28618421 -0.44407895 -3.28618421 -0.44407895 0 0 Z " fill="#292627" transform="translate(439.3125,234.3125)"/>
<path d="M0 0 C0.99 0 1.98 0 3 0 C3 0.66 3 1.32 3 2 C3.639375 2.2475 4.27875 2.495 4.9375 2.75 C7 4 7 4 7.75 6.125 C7.8325 6.74375 7.915 7.3625 8 8 C7.67 7.34 7.34 6.68 7 6 C6.195625 5.896875 5.39125 5.79375 4.5625 5.6875 C3.716875 5.460625 2.87125 5.23375 2 5 C0.6875 2.4375 0.6875 2.4375 0 0 Z " fill="#878687" transform="translate(257,427)"/>
<path d="M0 0 C0.99 0.33 1.98 0.66 3 1 C2.21625 1.4125 1.4325 1.825 0.625 2.25 C-2.10000193 4.06666796 -2.8478044 5.02349469 -4 8 C-4.33 8.66 -4.66 9.32 -5 10 C-5.66 10 -6.32 10 -7 10 C-7 8.68 -7 7.36 -7 6 C-6.34 6 -5.68 6 -5 6 C-4.731875 5.38125 -4.46375 4.7625 -4.1875 4.125 C-3 2 -3 2 0 0 Z " fill="#9F9F9F" transform="translate(434,234)"/>
<path d="M0 0 C1.32 0.66 2.64 1.32 4 2 C3.01 2.99 2.02 3.98 1 5 C0.01 4.67 -0.98 4.34 -2 4 C-2 3.34 -2 2.68 -2 2 C-1.34 2 -0.68 2 0 2 C0 1.34 0 0.68 0 0 Z M-4 1 C-3.34 1.33 -2.68 1.66 -2 2 C-2 2.99 -2 3.98 -2 5 C-2.99 5 -3.98 5 -5 5 C-5.33 4.01 -5.66 3.02 -6 2 C-5.34 1.67 -4.68 1.34 -4 1 Z " fill="#231F20" transform="translate(93,305)"/>
<path d="M0 0 C0.625 2.0625 0.625 2.0625 1 4 C-0.65 4.33 -2.3 4.66 -4 5 C-4.66 3.35 -5.32 1.7 -6 0 C-2.25 -1.125 -2.25 -1.125 0 0 Z " fill="#545253" transform="translate(339,168)"/>
<path d="M0 0 C0.66 0.33 1.32 0.66 2 1 C1.50628906 1.40992188 1.01257813 1.81984375 0.50390625 2.2421875 C-0.13675781 2.78101563 -0.77742188 3.31984375 -1.4375 3.875 C-2.07558594 4.40867187 -2.71367187 4.94234375 -3.37109375 5.4921875 C-5.10805004 6.9222757 -5.10805004 6.9222757 -6 9 C-6.66 9 -7.32 9 -8 9 C-8 8.01 -8 7.02 -8 6 C-6.25 4.39453125 -6.25 4.39453125 -4 2.8125 C-3.2575 2.28269531 -2.515 1.75289063 -1.75 1.20703125 C-1.1725 0.80871094 -0.595 0.41039062 0 0 Z " fill="#393637" transform="translate(391,286)"/>
<path d="M0 0 C3.36720387 1.39332574 4.9859524 2.9789286 7 6 C6.67 6.66 6.34 7.32 6 8 C4.68 7.67 3.36 7.34 2 7 C2 5.68 2 4.36 2 3 C1.01 2.67 0.02 2.34 -1 2 C-0.67 1.34 -0.34 0.68 0 0 Z " fill="#7F7E7F" transform="translate(336,158)"/>
<path d="M0 0 C2.2477975 2.05233685 3.0022242 3.00667261 4 6 C4.06740865 7.56118428 4.08514456 9.1250252 4.0625 10.6875 C4.05347656 11.49574219 4.04445312 12.30398437 4.03515625 13.13671875 C4.02355469 13.75160156 4.01195312 14.36648437 4 15 C3.67 15 3.34 15 3 15 C2.81824219 13.95199219 2.81824219 13.95199219 2.6328125 12.8828125 C2.46523437 11.97273438 2.29765625 11.06265625 2.125 10.125 C1.96257812 9.22007813 1.80015625 8.31515625 1.6328125 7.3828125 C1.16955297 4.83494012 1.16955297 4.83494012 -1 3 C-0.67 2.01 -0.34 1.02 0 0 Z " fill="#A3A0A1" transform="translate(212,91)"/>
<path d="M0 0 C-0.66 1.98 -1.32 3.96 -2 6 C-2.33 5.34 -2.66 4.68 -3 4 C-4.65 4.66 -6.3 5.32 -8 6 C-6.56530686 1.69592058 -4.58010985 0 0 0 Z " fill="#8F8E8F" transform="translate(295,86)"/>
<path d="M0 0 C0.66 0.66 1.32 1.32 2 2 C-0.36292656 4.52588702 -1.66462511 5.88820837 -5 7 C-4.60196439 4.11424181 -4.20990931 3.17810487 -1.9375 1.25 C-1.298125 0.8375 -0.65875 0.425 0 0 Z " fill="#211D1E" transform="translate(390,289)"/>
<path d="M0 0 C0.66 0.33 1.32 0.66 2 1 C0.625 3 0.625 3 -1 5 C-1.66 5 -2.32 5 -3 5 C-3 5.66 -3 6.32 -3 7 C-3.99 7.33 -4.98 7.66 -6 8 C-5.67 6.68 -5.34 5.36 -5 4 C-4.34 4 -3.68 4 -3 4 C-3 3.34 -3 2.68 -3 2 C-2.01 1.34 -1.02 0.68 0 0 Z " fill="#A1A0A0" transform="translate(389,184)"/>
<path d="M0 0 C5.19591612 0.44033187 8.66335081 0.88303339 13 4 C11.02 4.99 11.02 4.99 9 6 C8.34 5.01 7.68 4.02 7 3 C3.44327821 1.7811879 3.44327821 1.7811879 0 1 C0 0.67 0 0.34 0 0 Z " fill="#ADABAC" transform="translate(323,153)"/>
<path d="M0 0 C0 0.99 0 1.98 0 3 C-0.66 3 -1.32 3 -2 3 C-2 3.66 -2 4.32 -2 5 C-2.99 5.33 -3.98 5.66 -5 6 C-5 4.35 -5 2.7 -5 1 C-3 0 -3 0 0 0 Z " fill="#787576" transform="translate(116,309)"/>
<path d="M0 0 C0.99 0.99 1.98 1.98 3 3 C2.67 3.66 2.34 4.32 2 5 C0.02 5 -1.96 5 -4 5 C-2.68 3.35 -1.36 1.7 0 0 Z " fill="#221F20" transform="translate(399,210)"/>
<path d="M0 0 C1.65 0 3.3 0 5 0 C5.33 0.66 5.66 1.32 6 2 C5.01 2 4.02 2 3 2 C3 2.66 3 3.32 3 4 C1.68 4 0.36 4 -1 4 C-0.67 2.68 -0.34 1.36 0 0 Z " fill="#252223" transform="translate(245,42)"/>
<path d="M0 0 C1.65 0 3.3 0 5 0 C4.38125 0.04125 3.7625 0.0825 3.125 0.125 C2.42375 0.41375 1.7225 0.7025 1 1 C-0.3045656 3.99615946 -0.3045656 3.99615946 -1 7 C-1.66 6.67 -2.32 6.34 -3 6 C-3 4.68 -3 3.36 -3 2 C-2.01 2 -1.02 2 0 2 C0 1.34 0 0.68 0 0 Z " fill="#878485" transform="translate(117,203)"/>
<path d="M0 0 C0.66 0.66 1.32 1.32 2 2 C1.34 2 0.68 2 0 2 C0 1.34 0 0.68 0 0 Z M-2 0 C-1.34 0.99 -0.68 1.98 0 3 C-0.99 4.485 -0.99 4.485 -2 6 C-2.66 5.34 -3.32 4.68 -4 4 C-4 3.01 -4 2.02 -4 1 C-3.34 0.67 -2.68 0.34 -2 0 Z " fill="#201D1E" transform="translate(407,291)"/>
<path d="M0 0 C4.455 0.99 4.455 0.99 9 2 C6.8614515 4.1385485 5.86724686 4.42655063 3 5 C2.67 4.01 2.34 3.02 2 2 C1.34 2 0.68 2 0 2 C0 1.34 0 0.68 0 0 Z " fill="#999696" transform="translate(295,106)"/>
<path d="M0 0 C0.99 0.66 1.98 1.32 3 2 C1.35 2.66 -0.3 3.32 -2 4 C-2 5.98 -2 7.96 -2 10 C-2.33 10 -2.66 10 -3 10 C-3 7.69 -3 5.38 -3 3 C-2.34 3 -1.68 3 -1 3 C-0.67 2.01 -0.34 1.02 0 0 Z " fill="#918D8D" transform="translate(257,70)"/>
</svg>
